<?xml version="1.0" encoding="utf-8"?>
<!-- Generator: Adobe Illustrator 21.0.0, SVG Export Plug-In . SVG Version: 6.00 Build 0)  -->
<svg version="1.1" id="Layer_1" xmlns="http://www.w3.org/2000/svg" xmlns:xlink="http://www.w3.org/1999/xlink" x="0px" y="0px"
	 viewBox="0 0 58 58" style="enable-background:new 0 0 58 58;" xml:space="preserve">
<style type="text/css">
	.st0{display:none;}
	.st1{display:inline;fill:#6C6D6D;stroke:#FFFFFF;stroke-width:4;}
	.st2{display:inline;}
	.st3{fill:#FFFFFF;}
	.st4{fill:#6C6D6D;stroke:#FFFFFF;stroke-width:4;}
</style>
<g id="Layer_1_1_" class="st0">
	<circle class="st1" cx="29" cy="28.9" r="26.8"/>
	<g class="st2">
		<path class="st3" d="M44,25c0,4.3,0,8.6,0,12.8c0,0.1-0.1,0.2-0.1,0.3c-0.2,3-2.7,5.3-5.9,5.3c-1.5,0-2.9,0-4.4,0
			c-4.6,0-9.2,0-13.8,0c-0.3,0-0.7,0-1-0.1C16,42.8,14,40.5,14,37.7c0-3.3,0-6.7,0-10c0-0.2,0-0.4-0.1-0.6c0-0.7,0-1.4,0-2
			c0.1-0.3,0.4-0.3,0.6-0.3c2.5,0,5.1,0,7.6,0c0.1,0,0.3,0,0.4,0c-2.6,3.8-1.1,7.8,1.1,9.6c2.6,2.2,6.3,2.6,9.2,0.8
			c1.4-0.9,2.5-2,3.1-3.6c0.9-2.4,0.6-4.7-0.9-6.9c0.1,0,0.1,0,0.2,0c2.7,0,5.4,0,8.1,0C43.6,24.8,43.8,24.9,44,25z"/>
		<path class="st3" d="M44,19.9c0,1.3,0,2.6,0,3.9c-0.2,0-0.3,0.1-0.5,0.1c-2.9,0-5.8,0-8.6,0c-0.2,0-0.5-0.1-0.7-0.2
			c-3.1-2.7-7.4-2.6-10.3,0c-0.2,0.2-0.5,0.3-0.7,0.3c-2.9,0-5.7,0-8.6,0c-0.4,0-0.4-0.1-0.4-0.5s0-0.9-0.1-1.3c0-0.6,0-1.2,0-1.7
			c0-0.2,0.1-0.4,0.1-0.6c0.1-1.7,0.8-3.1,2.1-4.1c0.1-0.1,0.2-0.1,0.4-0.2c0,1.2,0,2.4,0,3.5c0,0.7,0,1.5,0,2.2
			c0,0.3,0.1,0.4,0.4,0.4c0.7,0,0.7,0,0.7-0.7c0-1.8,0-3.7,0-5.5c0-0.6,0.1-0.7,0.9-0.7c0,0.1,0,0.3,0,0.4c0,2,0,4,0,6
			c0,0.2,0.1,0.5,0.3,0.5c0.7,0.2,0.9,0,0.9-0.7c0-1.9,0-3.9,0-5.8c0-0.2,0.1-0.4,0.1-0.6c0.2,0,0.5,0,0.7,0c0,0.3,0.1,0.6,0.1,0.9
			c0,1.9,0,3.8,0,5.7c0,0.2,0.1,0.5,0.2,0.5c0.6,0.2,0.9,0,0.9-0.7c0-1.9,0-3.9,0-5.8c0-0.2,0-0.4,0.1-0.7c5.6,0,11.3,0,16.9,0
			c0.1,0,0.1,0.1,0.2,0.1c2.4,0.4,4.3,2.2,4.7,4.5C43.9,19.3,43.9,19.6,44,19.9z M36.2,19.3L36.2,19.3c0,0.2,0,0.5,0,0.7
			c0,0.3,0,0.5,0,0.8c0,0.6,0.3,1,1,1c1,0,2.1,0,3.1,0c0.6,0,0.9-0.3,1-0.9c0-1,0-2.1,0-3.1c0-0.6-0.3-0.9-0.9-0.9c-1,0-2.1,0-3.1,0
			c-0.7,0-1,0.3-1,1C36.1,18.3,36.2,18.8,36.2,19.3z"/>
		<path class="st3" d="M34.9,29c0,3.1-2.6,5.7-5.9,5.7s-5.9-2.5-5.9-5.7c0-3.1,2.7-5.7,5.9-5.7C32.3,23.4,34.9,25.9,34.9,29z
			 M29,33.2c2.3,0,4.3-1.8,4.4-4c0-2.4-1.8-4.3-4.2-4.4c-2.4,0-4.4,1.8-4.4,4.1C24.7,31.3,26.6,33.2,29,33.2z"/>
	</g>
</g>
<circle class="st4" cx="29" cy="29" r="26.9"/>
<g>
	<path class="st3" d="M17.8,16.3c0.7,0.3,1.5,0.4,2.2,0.7c1.7,0.6,3.4,1.6,4.9,2.6c0.2,0.1,0.3,0.1,0.5,0.1c2.2-0.4,4.3-0.4,6.6-0.2
		c0.3,0,0.8,0.1,1.1,0.2c0.2,0,0.3,0,0.4-0.1c1.4-1,2.8-1.7,4.2-2.3c0.9-0.3,1.8-0.7,2.8-0.9c0.1,0,0.1,0,0.2,0
		c0.2,0.6,0.4,1.2,0.6,1.8c0.3,1.4,0.6,2.9,0.5,4.2c0,0.3-0.1,0.6-0.1,0.9c0,0.1,0,0.3,0.1,0.3c0.8,1,1.5,2,1.8,3.1
		c0.3,1,0.4,1.9,0.4,2.9c0,1.8-0.2,3.7-0.9,5.5c-1,2.7-2.9,4.5-5.5,5.5c-1.8,0.7-3.7,1-5.7,1c-2.2,0-4.5,0-6.7,0
		c-2-0.1-4-0.5-5.8-1.4c-2.2-1.1-3.6-2.9-4.4-5.1c-0.8-2.1-1-4.2-0.8-6.3c0.2-1.8,0.9-3.5,2-4.8c0.3-0.3,0.3-0.5,0.3-0.9
		c-0.1-0.8,0-1.6,0.1-2.5C16.8,19.1,17.2,17.7,17.8,16.3C17.8,16.4,17.8,16.4,17.8,16.3z M29.1,40.3c1.4-0.1,2.7-0.1,3.9-0.2
		c1.4-0.1,2.7-0.3,3.9-1c1-0.4,1.8-1,2.3-2c1-1.6,1.1-3.4,0.6-5.2c-0.3-1.2-1-2.2-2.2-2.8c-0.6-0.4-1.5-0.6-2.3-0.6
		c-1.2,0-2.3,0-3.5,0.1c-2,0.2-3.9,0.1-5.9-0.1c-1.1-0.1-2.2-0.2-3.4,0c-2.3,0.2-3.8,2.1-4.2,4c-0.2,1-0.1,1.9,0.1,2.9
		c0.3,1.5,1.1,2.6,2.4,3.4c1.2,0.7,2.6,1,4,1.1C26.4,40.1,27.8,40.2,29.1,40.3z"/>
	<path class="st3" d="M22,34c0-0.8,0.2-1.6,0.8-2.2c1-1,2.2-0.9,2.9,0.3c0.9,1.3,0.8,2.7,0,4c-0.4,0.6-1,1-1.8,0.9
		c-0.5-0.1-1-0.4-1.3-0.9C22.2,35.5,22,34.8,22,34z"/>
	<path class="st3" d="M36.6,34.2c0,0.7-0.2,1.5-0.8,2.1c-0.9,1-2.2,0.9-2.9-0.3c-0.9-1.3-0.8-2.7,0-4c0.3-0.6,1-1,1.7-0.9
		c0.6,0.1,1,0.4,1.3,1C36.4,32.7,36.6,33.4,36.6,34.2z"/>
</g>
</svg>
