<?xml version="1.0" encoding="utf-8"?>
<!-- Generator: Adobe Illustrator 21.0.0, SVG Export Plug-In . SVG Version: 6.00 Build 0)  -->
<svg version="1.1" id="Layer_1" xmlns="http://www.w3.org/2000/svg" xmlns:xlink="http://www.w3.org/1999/xlink" x="0px" y="0px"
	 viewBox="0 0 58 58" style="enable-background:new 0 0 58 58;" xml:space="preserve">
<style type="text/css">
	.st0{fill:#6C6D6D;stroke:#FFFFFF;stroke-width:4;}
	.st1{fill:#FFFFFF;}
</style>
<circle class="st0" cx="29" cy="28.9" r="26.8"/>
<g>
	<path class="st1" d="M43,25.7c0,3.9,0,7.8,0,11.6c0,0.1-0.1,0.2-0.1,0.3c-0.2,2.7-2.4,4.8-5.4,4.8c-1.4,0-2.6,0-4,0
		c-4.2,0-8.3,0-12.5,0c-0.3,0-0.6,0-0.9-0.1c-2.5-0.5-4.4-2.5-4.4-5.1c0-3,0-6.1,0-9.1c0-0.2,0-0.4-0.1-0.5c0-0.6,0-1.3,0-1.8
		c0.1-0.3,0.4-0.3,0.5-0.3c2.3,0,4.6,0,6.9,0c0.1,0,0.3,0,0.4,0c-2.4,3.4-1,7.1,1,8.7c2.4,2,5.7,2.4,8.3,0.7
		c1.3-0.8,2.3-1.8,2.8-3.3c0.8-2.2,0.5-4.3-0.8-6.3c0.1,0,0.1,0,0.2,0c2.4,0,4.9,0,7.3,0C42.6,25.5,42.8,25.6,43,25.7z"/>
	<path class="st1" d="M43,21.1c0,1.2,0,2.4,0,3.5c-0.2,0-0.3,0.1-0.5,0.1c-2.6,0-5.3,0-7.8,0c-0.2,0-0.5-0.1-0.6-0.2
		c-2.8-2.4-6.7-2.4-9.3,0c-0.2,0.2-0.5,0.3-0.6,0.3c-2.6,0-5.2,0-7.8,0c-0.4,0-0.4-0.1-0.4-0.5s0-0.8-0.1-1.2c0-0.5,0-1.1,0-1.5
		c0-0.2,0.1-0.4,0.1-0.5c0.1-1.5,0.7-2.8,1.9-3.7c0.1-0.1,0.2-0.1,0.4-0.2c0,1.1,0,2.2,0,3.2c0,0.6,0,1.4,0,2c0,0.3,0.1,0.4,0.4,0.4
		c0.6,0,0.6,0,0.6-0.6c0-1.6,0-3.4,0-5c0-0.5,0.1-0.6,0.8-0.6c0,0.1,0,0.3,0,0.4c0,1.8,0,3.6,0,5.4c0,0.2,0.1,0.5,0.3,0.5
		c0.6,0.2,0.8,0,0.8-0.6c0-1.7,0-3.5,0-5.3c0-0.2,0.1-0.4,0.1-0.5c0.2,0,0.5,0,0.6,0c0,0.3,0.1,0.5,0.1,0.8c0,1.7,0,3.4,0,5.2
		c0,0.2,0.1,0.5,0.2,0.5c0.5,0.2,0.8,0,0.8-0.6c0-1.7,0-3.5,0-5.3c0-0.2,0-0.4,0.1-0.6c5.1,0,10.2,0,15.3,0c0.1,0,0.1,0.1,0.2,0.1
		c2.2,0.4,3.9,2,4.3,4.1C42.9,20.5,42.9,20.8,43,21.1z M35.9,20.5L35.9,20.5c0,0.2,0,0.5,0,0.6c0,0.3,0,0.5,0,0.7
		c0,0.5,0.3,0.9,0.9,0.9c0.9,0,1.9,0,2.8,0c0.5,0,0.8-0.3,0.9-0.8c0-0.9,0-1.9,0-2.8c0-0.5-0.3-0.8-0.8-0.8c-0.9,0-1.9,0-2.8,0
		c-0.6,0-0.9,0.3-0.9,0.9C35.8,19.6,35.9,20.1,35.9,20.5z"/>
	<path class="st1" d="M34.7,29.3c0,2.8-2.4,5.2-5.4,5.2S24,32.2,24,29.3c0-2.8,2.4-5.2,5.4-5.2C32.4,24.3,34.7,26.5,34.7,29.3z
		 M29.4,33.1c2.1,0,3.9-1.6,4-3.6c0-2.2-1.6-3.9-3.8-4c-2.2,0-4,1.6-4,3.7C25.5,31.4,27.2,33.1,29.4,33.1z"/>
</g>
</svg>
