<?xml version="1.0" encoding="utf-8"?>
<!-- Generator: Adobe Illustrator 21.0.0, SVG Export Plug-In . SVG Version: 6.00 Build 0)  -->
<svg version="1.1" id="Layer_1" xmlns="http://www.w3.org/2000/svg" xmlns:xlink="http://www.w3.org/1999/xlink" x="0px" y="0px"
	 viewBox="0 0 512 480.1" style="enable-background:new 0 0 512 480.1;" xml:space="preserve">
<style type="text/css">
	.st0{fill:#F06922;}
</style>
<g>
	<path class="st0" d="M223.9,256.1C223.9,256.2,223.9,256.2,223.9,256.1c15.3,0,30.7,0,46,0c11.5,0,18.1-6.4,18.1-17.8
		c0-20,0-40,0-60c0-11.9-6.3-18.2-18.2-18.2c-30.7,0-61.3,0-92,0c-11.3,0-17.8,6.3-17.8,17.6c0,20.3,0,40.7,0,61
		c0,10.9,6.5,17.4,17.4,17.4C192.9,256.2,208.4,256.1,223.9,256.1z"/>
	<path class="st0" d="M512,183.1c-0.4,1.1-0.8,2.1-1.1,3.2c-5,22.1-24.1,37.6-46.8,37.8c-15.8,0.1-31.6,0-48,0c0,21.1,0,42,0,64.1
		c-32.5-27.1-64-53.3-96.1-80.1c31.9-26.6,63.5-52.9,95.8-79.8c0,21.6,0,42.4,0,63.5c2.1,0.1,3.5,0.3,5,0.3c14,0,28,0,42,0
		c10.6,0,17.3-6.6,17.3-17.1c0-31.2,0-62.3,0-93.5c0-10.9-6.5-17.4-17.4-17.4c-79,0-158,0-236.9,0c-21.6,0-43.3,0-65.3,0
		c0-10.7,0-21.1,0-31.8c1.7-0.1,3.3-0.2,4.9-0.2c98.6,0,197.3,0,295.9,0c26.3,0,44,14,50.1,39.7c0.1,0.4,0.5,0.8,0.8,1.2
		C512,109.8,512,146.5,512,183.1z"/>
	<path class="st0" d="M0,233.1c1-3.1,1.8-6.3,3-9.4c7.5-18.7,21.3-30.3,41.3-31.2c27.6-1.2,55.3-0.3,83.3-0.3c0,10.5,0,20.8,0,31.9
		c-1.9,0-3.8,0-5.8,0c-24,0-48,0-72,0c-11.6,0-17.9,6.4-17.9,17.9c0,41.3,0,82.6,0,123.9c0,11.7,6.3,18.1,17.8,18.1
		c67.3,0,134.6,0,201.9,0c1.3,0,2.6,0,4.2,0c0-21.2,0-42,0-64.1c32.5,27,64.1,53.4,96.1,80c-2.1,1.8-3.7,3.2-5.3,4.5
		c-28.8,24-57.6,48-86.4,72c-1.2,1-2.2,2.4-3.3,3.5c-0.3,0-0.7,0-1,0c0-21.3,0-42.5,0-64c-2.4,0-4,0-5.7,0c-67.2,0-134.3,0-201.5,0
		c-24.1,0-42.8-15.4-47.9-38.7c-0.2-0.8-0.6-1.5-0.9-2.2C0,327.8,0,280.5,0,233.1z"/>
	<path class="st0" d="M0,12.1C3.9,3,10.8-0.1,20.6,0c29.5,0.4,59,0.1,88.5,0.1c12.9,0,18.9,6.1,18.9,19c0,19.7,0,39.3,0,59
		c0,11.5-6.4,18-17.9,18c-29.8,0-59.7-0.3-89.5,0.1C10.8,96.4,3.9,93.2,0,84.1C0,60.1,0,36.1,0,12.1z"/>
	<path class="st0" d="M512,436.1c-3.9,9.1-10.8,12.3-20.6,12.1c-29.8-0.4-59.6-0.1-89.4-0.1c-11.6,0-18-6.3-18-17.8
		c0-20.3,0-40.6,0-60.9c0-10.6,6.5-17.2,17-17.3c31.3,0,62.6,0,93.9-0.1c8.7,0,13.7,4.8,17.1,12.1C512,388.1,512,412.1,512,436.1z"
		/>
	<path class="st0" d="M223.9,256.1c-15.5,0-31,0-46.5,0c-10.9,0-17.4-6.5-17.4-17.4c0-20.3,0-40.7,0-61c0-11.2,6.4-17.5,17.8-17.6
		c30.7,0,61.3,0,92,0c11.9,0,18.2,6.3,18.2,18.2c0,20,0,40,0,60c0,11.4-6.5,17.8-18.1,17.8C254.6,256.2,239.3,256.2,223.9,256.1
		C223.9,256.2,223.9,256.2,223.9,256.1z"/>
</g>
</svg>
