<?xml version="1.0" encoding="utf-8"?>
<!-- Generator: Adobe Illustrator 21.0.0, SVG Export Plug-In . SVG Version: 6.00 Build 0)  -->
<svg version="1.1" id="Layer_1" xmlns="http://www.w3.org/2000/svg" xmlns:xlink="http://www.w3.org/1999/xlink" x="0px" y="0px"
	 viewBox="0 0 263.5 53.7" style="enable-background:new 0 0 263.5 53.7;" xml:space="preserve">
<style type="text/css">
	.st0{fill:#F06924;}
	.st1{fill:#070808;}
</style>
<path class="st0" d="M253.9,49.7H8.6v-23h-3v26h251.3v-26h-3V49.7z"/>
<path class="st0" d="M248.3,9.1h14.2v-4h-14.2V9.1z M9.1,14.2V9.1h5.1v-4H9.1V0h-4v5.1H0v4h5.1v5.1H9.1z"/>
<path class="st1" d="M254.9,50.7H9.6v-23h-3v26h251.3v-26h-3V50.7z"/>
<path class="st1" d="M249.3,10.1h14.2v-4h-14.2V10.1z M10.1,15.2v-5.1h5.1v-4h-5.1V1h-4v5.1H1v4h5.1v5.1H10.1z"/>
</svg>
