<?xml version="1.0" encoding="utf-8"?>
<!-- Generator: Adobe Illustrator 21.0.0, SVG Export Plug-In . SVG Version: 6.00 Build 0)  -->
<svg version="1.1" id="Layer_1" xmlns="http://www.w3.org/2000/svg" xmlns:xlink="http://www.w3.org/1999/xlink" x="0px" y="0px"
	 viewBox="0 0 84 71" style="enable-background:new 0 0 84 71;" xml:space="preserve">
<style type="text/css">
	.st0{fill:#F06924;}
	.st1{fill:#FFFFFF;}
</style>
<g>
	<path class="st0" d="M37.5,52.9c-0.2-1.3-0.3-2.5-0.6-3.7c-0.7-3.1-2.2-5.8-3.8-8.5c-1.4-2.4-3-4.8-3.8-7.6
		c-1.2-4.5-0.8-8.7,2.5-12.2c2.6-2.8,6.1-4,9.9-3.9c3.8,0,7.3,1.2,9.9,4.1c3.1,3.5,3.6,7.6,2.4,12c-0.7,2.7-2.2,5-3.6,7.3
		c-1.5,2.6-3.1,5.2-3.8,8.1c-0.4,1.5-0.7,2.9-0.6,4.4c1.4,0,2.7,0,4,0c0.1-3.1,1.3-5.8,2.8-8.4c0.9-1.5,1.8-3.1,2.7-4.6
		c2-3.5,3.3-7.2,3.2-11.3c-0.2-5.9-2.6-10.5-7.8-13.4c-4-2.3-8.4-2.9-13-2c-4.3,0.8-7.9,2.8-10.4,6.4c-2.9,4.2-3.4,8.8-2.4,13.7
		c0.7,3.2,2.4,6.1,4,8.9c2,3.3,4.1,6.6,4.2,10.7C34.8,52.9,36,52.9,37.5,52.9z M41.7,63c1.8,0,3.7,0,5.5,0c1,0,1.6-0.6,1.6-1.5
		c0-0.9-0.6-1.5-1.6-1.5c-3.7,0-7.3,0-11,0c-1,0-1.7,0.7-1.7,1.5c0,0.9,0.7,1.5,1.7,1.5C38.1,63,39.9,63,41.7,63z M41.7,55
		c-1.9,0-3.8,0-5.7,0c-1,0-1.6,0.5-1.6,1.5c0,1,0.6,1.5,1.7,1.5c3.8,0,7.6,0,11.4,0c1.1,0,1.7-0.6,1.7-1.5c0-0.9-0.6-1.5-1.7-1.5
		C45.5,55,43.6,55,41.7,55z M12,30.6c2.8,0,5.6,0,8.3,0c0-1.4,0-2.7,0-4c-2.8,0-5.5,0-8.3,0C12,27.9,12,29.2,12,30.6z M63.1,30.6
		c2.8,0,5.5,0,8.3,0c0-1.4,0-2.7,0-4c-2.8,0-5.5,0-8.3,0C63.1,27.9,63.1,29.2,63.1,30.6z M21.8,37.6c-2.5,1.1-4.9,2.2-7.4,3.3
		c0.6,1.3,1.1,2.5,1.7,3.8c2.5-1.1,4.9-2.2,7.4-3.3C22.9,40.1,22.4,38.9,21.8,37.6z M24.2,16.6c-2.2-1.6-4.4-3.1-6.6-4.7
		c-0.8,1.1-1.6,2.2-2.4,3.4c2.2,1.6,4.3,3.1,6.6,4.7C22.6,18.8,23.3,17.8,24.2,16.6z M65.8,11.9c-2.2,1.6-4.4,3.1-6.6,4.7
		c0.8,1.2,1.6,2.2,2.4,3.4c2.2-1.6,4.4-3.1,6.6-4.7C67.4,14.1,66.7,13.1,65.8,11.9z M69,40.9c-2.5-1-4.9-2-7.4-3
		c-0.5,1.3-1,2.5-1.5,3.8c2.5,1,4.9,2,7.4,3C67.9,43.4,68.4,42.2,69,40.9z M32.8,10c-1.2-2.3-2.4-4.5-3.6-6.7
		c-1.3,0.7-2.4,1.3-3.6,2c1.2,2.3,2.4,4.5,3.6,6.7C30.4,11.3,31.6,10.6,32.8,10z M54.2,3.2C53,5.5,51.8,7.7,50.6,10
		c1.2,0.7,2.4,1.3,3.6,2c1.2-2.3,2.4-4.5,3.6-6.7C56.6,4.5,55.5,3.9,54.2,3.2z M43.8,1.3c-1.2,0-2.5,0-3.7,0c-0.2,0-0.4,0.4-0.4,0.6
		c0,0.9,0,1.7,0,2.6c0,1.4,0,2.7,0,4.1c1.4,0,2.8,0,4.1,0C43.8,6.2,43.8,3.8,43.8,1.3z M36.2,64.9c4,5.1,7.8,3.9,10.9,0
		C43.5,64.9,39.9,64.9,36.2,64.9z"/>
	<path class="st0" d="M37.5,52.9c-1.5,0-2.8,0-4.1,0c-0.1-4.1-2.2-7.4-4.2-10.7c-1.7-2.8-3.3-5.6-4-8.9c-1.1-4.9-0.6-9.5,2.4-13.7
		c2.5-3.6,6.1-5.6,10.4-6.4c4.6-0.9,8.9-0.3,13,2c5.2,3,7.6,7.5,7.8,13.4c0.1,4.1-1.2,7.8-3.2,11.3c-0.9,1.6-1.8,3.1-2.7,4.6
		c-1.5,2.6-2.7,5.3-2.8,8.4c-1.3,0-2.6,0-4,0c-0.1-1.5,0.2-3,0.6-4.4c0.8-2.9,2.3-5.5,3.8-8.1c1.4-2.3,2.9-4.7,3.6-7.3
		c1.2-4.4,0.8-8.5-2.4-12c-2.6-2.9-6-4.1-9.9-4.1c-3.8,0-7.2,1.1-9.9,3.9c-3.3,3.5-3.8,7.7-2.5,12.2c0.8,2.8,2.3,5.1,3.8,7.6
		c1.6,2.7,3.2,5.4,3.8,8.5C37.2,50.4,37.3,51.6,37.5,52.9z"/>
	<path class="st0" d="M41.7,63c-1.8,0-3.6,0-5.4,0c-1,0-1.7-0.6-1.7-1.5c0-0.9,0.7-1.5,1.7-1.5c3.7,0,7.3,0,11,0
		c1,0,1.6,0.6,1.6,1.5c0,0.9-0.6,1.5-1.6,1.5C45.3,63,43.5,63,41.7,63z"/>
	<path class="st0" d="M41.7,55c1.9,0,3.8,0,5.7,0c1.1,0,1.7,0.5,1.7,1.5c0,0.9-0.6,1.5-1.7,1.5c-3.8,0-7.6,0-11.4,0
		c-1.1,0-1.7-0.6-1.7-1.5c0-0.9,0.6-1.5,1.6-1.5C37.9,55,39.8,55,41.7,55z"/>
	<path class="st0" d="M12,30.6c0-1.3,0-2.6,0-4c2.8,0,5.5,0,8.3,0c0,1.3,0,2.6,0,4C17.6,30.6,14.9,30.6,12,30.6z"/>
	<path class="st0" d="M63.1,30.6c0-1.4,0-2.6,0-4c2.8,0,5.5,0,8.3,0c0,1.3,0,2.6,0,4C68.6,30.6,65.9,30.6,63.1,30.6z"/>
	<path class="st0" d="M21.8,37.6c0.6,1.3,1.1,2.5,1.7,3.8c-2.5,1.1-4.9,2.2-7.4,3.3c-0.6-1.2-1.1-2.5-1.7-3.8
		C16.8,39.8,19.2,38.7,21.8,37.6z"/>
	<path class="st0" d="M24.2,16.6c-0.8,1.1-1.6,2.2-2.4,3.4c-2.2-1.6-4.4-3.1-6.6-4.7c0.8-1.1,1.6-2.2,2.4-3.4
		C19.8,13.5,21.9,15,24.2,16.6z"/>
	<path class="st0" d="M65.8,11.9c0.8,1.1,1.6,2.2,2.4,3.4c-2.2,1.6-4.4,3.1-6.6,4.7c-0.8-1.1-1.6-2.2-2.4-3.4
		C61.5,15.1,63.6,13.5,65.8,11.9z"/>
	<path class="st0" d="M69,40.9c-0.5,1.3-1,2.5-1.6,3.8c-2.5-1-4.9-2-7.4-3c0.5-1.3,1-2.5,1.5-3.8C64,38.9,66.5,39.9,69,40.9z"/>
	<path class="st0" d="M32.8,10c-1.2,0.7-2.4,1.3-3.6,2c-1.2-2.2-2.4-4.5-3.6-6.7c1.2-0.7,2.4-1.3,3.6-2C30.4,5.5,31.6,7.7,32.8,10z"
		/>
	<path class="st0" d="M54.2,3.2c1.3,0.7,2.4,1.3,3.6,2c-1.2,2.3-2.4,4.5-3.6,6.7c-1.2-0.7-2.4-1.3-3.6-2C51.8,7.7,53,5.5,54.2,3.2z"
		/>
	<path class="st0" d="M43.8,1.3c0,2.5,0,4.9,0,7.3c-1.3,0-2.7,0-4.1,0c0-1.4,0-2.8,0-4.1c0-0.9,0-1.7,0-2.6c0-0.2,0.3-0.6,0.4-0.6
		C41.4,1.3,42.6,1.3,43.8,1.3z"/>
	<path class="st0" d="M36.2,64.9c3.7,0,7.2,0,10.9,0C44,68.8,40.3,70,36.2,64.9z"/>
</g>
<g>
	<path class="st1" d="M37.5,53.9c-0.2-1.3-0.3-2.5-0.6-3.7c-0.7-3.1-2.2-5.8-3.8-8.5c-1.4-2.4-3-4.8-3.8-7.6
		c-1.2-4.5-0.8-8.7,2.5-12.2c2.6-2.8,6.1-4,9.9-3.9c3.8,0,7.3,1.2,9.9,4.1c3.1,3.5,3.6,7.6,2.4,12c-0.7,2.7-2.2,5-3.6,7.3
		c-1.5,2.6-3.1,5.2-3.8,8.1c-0.4,1.5-0.7,2.9-0.6,4.4c1.4,0,2.7,0,4,0c0.1-3.1,1.3-5.8,2.8-8.4c0.9-1.5,1.8-3.1,2.7-4.6
		c2-3.5,3.3-7.2,3.2-11.3c-0.2-5.9-2.6-10.5-7.8-13.4c-4-2.3-8.4-2.9-13-2c-4.3,0.8-7.9,2.8-10.4,6.4c-2.9,4.2-3.4,8.8-2.4,13.7
		c0.7,3.2,2.4,6.1,4,8.9c2,3.3,4.1,6.6,4.2,10.7C34.8,53.9,36,53.9,37.5,53.9z M41.7,64c1.8,0,3.7,0,5.5,0c1,0,1.6-0.6,1.6-1.5
		c0-0.9-0.6-1.5-1.6-1.5c-3.7,0-7.3,0-11,0c-1,0-1.7,0.7-1.7,1.5c0,0.9,0.7,1.5,1.7,1.5C38.1,64,39.9,64,41.7,64z M41.7,56
		c-1.9,0-3.8,0-5.7,0c-1,0-1.6,0.5-1.6,1.5c0,1,0.6,1.5,1.7,1.5c3.8,0,7.6,0,11.4,0c1.1,0,1.7-0.6,1.7-1.5c0-0.9-0.6-1.5-1.7-1.5
		C45.5,56,43.6,56,41.7,56z M12,31.6c2.8,0,5.6,0,8.3,0c0-1.4,0-2.7,0-4c-2.8,0-5.5,0-8.3,0C12,28.9,12,30.2,12,31.6z M63.1,31.6
		c2.8,0,5.5,0,8.3,0c0-1.4,0-2.7,0-4c-2.8,0-5.5,0-8.3,0C63.1,28.9,63.1,30.2,63.1,31.6z M21.8,38.6c-2.5,1.1-4.9,2.2-7.4,3.3
		c0.6,1.3,1.1,2.5,1.7,3.8c2.5-1.1,4.9-2.2,7.4-3.3C22.9,41.1,22.4,39.9,21.8,38.6z M24.2,17.6c-2.2-1.6-4.4-3.1-6.6-4.7
		c-0.8,1.1-1.6,2.2-2.4,3.4c2.2,1.6,4.3,3.1,6.6,4.7C22.6,19.8,23.3,18.8,24.2,17.6z M65.8,12.9c-2.2,1.6-4.4,3.1-6.6,4.7
		c0.8,1.2,1.6,2.2,2.4,3.4c2.2-1.6,4.4-3.1,6.6-4.7C67.4,15.1,66.7,14.1,65.8,12.9z M69,41.9c-2.5-1-4.9-2-7.4-3
		c-0.5,1.3-1,2.5-1.5,3.8c2.5,1,4.9,2,7.4,3C67.9,44.4,68.4,43.2,69,41.9z M32.8,11c-1.2-2.3-2.4-4.5-3.6-6.7
		c-1.3,0.7-2.4,1.3-3.6,2c1.2,2.3,2.4,4.5,3.6,6.7C30.4,12.3,31.6,11.6,32.8,11z M54.2,4.2C53,6.5,51.8,8.7,50.6,11
		c1.2,0.7,2.4,1.3,3.6,2c1.2-2.3,2.4-4.5,3.6-6.7C56.6,5.5,55.5,4.9,54.2,4.2z M43.8,2.3c-1.2,0-2.5,0-3.7,0c-0.2,0-0.4,0.4-0.4,0.6
		c0,0.9,0,1.7,0,2.6c0,1.4,0,2.7,0,4.1c1.4,0,2.8,0,4.1,0C43.8,7.2,43.8,4.8,43.8,2.3z M36.2,65.9c4,5.1,7.8,3.9,10.9,0
		C43.5,65.9,39.9,65.9,36.2,65.9z"/>
	<path d="M37.5,53.9c-1.5,0-2.8,0-4.1,0c-0.1-4.1-2.2-7.4-4.2-10.7c-1.7-2.8-3.3-5.6-4-8.9c-1.1-4.9-0.6-9.5,2.4-13.7
		c2.5-3.6,6.1-5.6,10.4-6.4c4.6-0.9,8.9-0.3,13,2c5.2,3,7.6,7.5,7.8,13.4c0.1,4.1-1.2,7.8-3.2,11.3c-0.9,1.6-1.8,3.1-2.7,4.6
		c-1.5,2.6-2.7,5.3-2.8,8.4c-1.3,0-2.6,0-4,0c-0.1-1.5,0.2-3,0.6-4.4c0.8-2.9,2.3-5.5,3.8-8.1c1.4-2.3,2.9-4.7,3.6-7.3
		c1.2-4.4,0.8-8.5-2.4-12c-2.6-2.9-6-4.1-9.9-4.1c-3.8,0-7.2,1.1-9.9,3.9c-3.3,3.5-3.8,7.7-2.5,12.2c0.8,2.8,2.3,5.1,3.8,7.6
		c1.6,2.7,3.2,5.4,3.8,8.5C37.2,51.4,37.3,52.6,37.5,53.9z"/>
	<path d="M41.7,64c-1.8,0-3.6,0-5.4,0c-1,0-1.7-0.6-1.7-1.5c0-0.9,0.7-1.5,1.7-1.5c3.7,0,7.3,0,11,0c1,0,1.6,0.6,1.6,1.5
		c0,0.9-0.6,1.5-1.6,1.5C45.3,64,43.5,64,41.7,64z"/>
	<path d="M41.7,56c1.9,0,3.8,0,5.7,0c1.1,0,1.7,0.5,1.7,1.5c0,0.9-0.6,1.5-1.7,1.5c-3.8,0-7.6,0-11.4,0c-1.1,0-1.7-0.6-1.7-1.5
		c0-0.9,0.6-1.5,1.6-1.5C37.9,56,39.8,56,41.7,56z"/>
	<path d="M12,31.6c0-1.3,0-2.6,0-4c2.8,0,5.5,0,8.3,0c0,1.3,0,2.6,0,4C17.6,31.6,14.9,31.6,12,31.6z"/>
	<path d="M63.1,31.6c0-1.4,0-2.6,0-4c2.8,0,5.5,0,8.3,0c0,1.3,0,2.6,0,4C68.6,31.6,65.9,31.6,63.1,31.6z"/>
	<path d="M21.8,38.6c0.6,1.3,1.1,2.5,1.7,3.8c-2.5,1.1-4.9,2.2-7.4,3.3c-0.6-1.2-1.1-2.5-1.7-3.8C16.8,40.8,19.2,39.7,21.8,38.6z"/>
	<path d="M24.2,17.6c-0.8,1.1-1.6,2.2-2.4,3.4c-2.2-1.6-4.4-3.1-6.6-4.7c0.8-1.1,1.6-2.2,2.4-3.4C19.8,14.5,21.9,16,24.2,17.6z"/>
	<path d="M65.8,12.9c0.8,1.1,1.6,2.2,2.4,3.4c-2.2,1.6-4.4,3.1-6.6,4.7c-0.8-1.1-1.6-2.2-2.4-3.4C61.5,16.1,63.6,14.5,65.8,12.9z"/>
	<path d="M69,41.9c-0.5,1.3-1,2.5-1.6,3.8c-2.5-1-4.9-2-7.4-3c0.5-1.3,1-2.5,1.5-3.8C64,39.9,66.5,40.9,69,41.9z"/>
	<path d="M32.8,11c-1.2,0.7-2.4,1.3-3.6,2c-1.2-2.2-2.4-4.5-3.6-6.7c1.2-0.7,2.4-1.3,3.6-2C30.4,6.5,31.6,8.7,32.8,11z"/>
	<path d="M54.2,4.2c1.3,0.7,2.4,1.3,3.6,2c-1.2,2.3-2.4,4.5-3.6,6.7c-1.2-0.7-2.4-1.3-3.6-2C51.8,8.7,53,6.5,54.2,4.2z"/>
	<path d="M43.8,2.3c0,2.5,0,4.9,0,7.3c-1.3,0-2.7,0-4.1,0c0-1.4,0-2.8,0-4.1c0-0.9,0-1.7,0-2.6c0-0.2,0.3-0.6,0.4-0.6
		C41.4,2.3,42.6,2.3,43.8,2.3z"/>
	<path d="M36.2,65.9c3.7,0,7.2,0,10.9,0C44,69.8,40.3,71,36.2,65.9z"/>
</g>
</svg>
