<?xml version="1.0" encoding="utf-8"?>
<!-- Generator: Adobe Illustrator 21.0.0, SVG Export Plug-In . SVG Version: 6.00 Build 0)  -->
<svg version="1.1" xmlns="http://www.w3.org/2000/svg" xmlns:xlink="http://www.w3.org/1999/xlink" x="0px" y="0px"
	 viewBox="0 0 118.5 118.1" style="enable-background:new 0 0 118.5 118.1;" xml:space="preserve">
<style type="text/css">
	.st0{display:none;}
	.st1{display:inline;}
	.st2{fill:#F06924;}
	.st3{fill:#FFFFFF;}
	.st4{fill:#F06925;}
	.st5{fill:#383838;stroke:#252525;stroke-width:0.25;stroke-miterlimit:10;}
</style>
<g id="think" class="st0">
	<g class="st1">
		<path class="st2" d="M54.8,75.3c-0.2-1.3-0.3-2.5-0.6-3.7c-0.7-3.1-2.2-5.8-3.8-8.5c-1.4-2.4-3-4.8-3.8-7.6
			c-1.2-4.5-0.8-8.7,2.5-12.2c2.6-2.8,6.1-4,9.9-3.9c3.8,0,7.3,1.2,9.9,4.1c3.1,3.5,3.6,7.6,2.4,12c-0.7,2.7-2.2,5-3.6,7.3
			c-1.5,2.6-3.1,5.2-3.8,8.1c-0.4,1.5-0.7,2.9-0.6,4.4c1.4,0,2.7,0,4,0c0.1-3.1,1.3-5.8,2.8-8.4c0.9-1.5,1.8-3.1,2.7-4.6
			c2-3.5,3.3-7.2,3.2-11.3c-0.2-5.9-2.6-10.5-7.8-13.4c-4-2.3-8.4-2.9-13-2c-4.3,0.8-7.9,2.8-10.4,6.4c-2.9,4.2-3.4,8.8-2.4,13.7
			c0.7,3.2,2.4,6.1,4,8.9c2,3.3,4.1,6.6,4.2,10.7C52,75.3,53.3,75.3,54.8,75.3z M58.9,85.4c1.8,0,3.7,0,5.5,0c1,0,1.6-0.6,1.6-1.5
			c0-0.9-0.6-1.5-1.6-1.5c-3.7,0-7.3,0-11,0c-1,0-1.7,0.7-1.7,1.5c0,0.9,0.7,1.5,1.7,1.5C55.3,85.4,57.1,85.4,58.9,85.4z M59,77.4
			c-1.9,0-3.8,0-5.7,0c-1,0-1.6,0.5-1.6,1.5c0,1,0.6,1.5,1.7,1.5c3.8,0,7.6,0,11.4,0c1.1,0,1.7-0.6,1.7-1.5c0-0.9-0.6-1.5-1.7-1.5
			C62.7,77.4,60.8,77.4,59,77.4z M29.3,52.9c2.8,0,5.6,0,8.3,0c0-1.4,0-2.7,0-4c-2.8,0-5.5,0-8.3,0C29.3,50.3,29.3,51.6,29.3,52.9z
			 M80.3,52.9c2.8,0,5.5,0,8.3,0c0-1.4,0-2.7,0-4c-2.8,0-5.5,0-8.3,0C80.3,50.3,80.3,51.6,80.3,52.9z M39,60
			c-2.5,1.1-4.9,2.2-7.4,3.3c0.6,1.3,1.1,2.5,1.7,3.8c2.5-1.1,4.9-2.2,7.4-3.3C40.1,62.4,39.6,61.2,39,60z M41.4,39
			c-2.2-1.6-4.4-3.1-6.6-4.7c-0.8,1.1-1.6,2.2-2.4,3.4c2.2,1.6,4.3,3.1,6.6,4.7C39.8,41.2,40.6,40.1,41.4,39z M83.1,34.3
			c-2.2,1.6-4.4,3.1-6.6,4.7c0.8,1.2,1.6,2.2,2.4,3.4c2.2-1.6,4.4-3.1,6.6-4.7C84.7,36.5,83.9,35.4,83.1,34.3z M86.2,63.2
			c-2.5-1-4.9-2-7.4-3c-0.5,1.3-1,2.5-1.5,3.8c2.5,1,4.9,2,7.4,3C85.2,65.8,85.7,64.5,86.2,63.2z M50.1,32.3
			c-1.2-2.3-2.4-4.5-3.6-6.7c-1.3,0.7-2.4,1.3-3.6,2c1.2,2.3,2.4,4.5,3.6,6.7C47.7,33.6,48.8,33,50.1,32.3z M71.5,25.6
			c-1.2,2.3-2.4,4.5-3.6,6.7c1.2,0.7,2.4,1.3,3.6,2c1.2-2.3,2.4-4.5,3.6-6.7C73.9,26.9,72.7,26.3,71.5,25.6z M61.1,23.7
			c-1.2,0-2.5,0-3.7,0c-0.2,0-0.4,0.4-0.4,0.6c0,0.9,0,1.7,0,2.6c0,1.4,0,2.7,0,4.1c1.4,0,2.8,0,4.1,0
			C61.1,28.5,61.1,26.1,61.1,23.7z M53.5,87.2c4,5.1,7.8,3.9,10.9,0C60.7,87.2,57.2,87.2,53.5,87.2z"/>
		<path class="st2" d="M54.8,75.3c-1.5,0-2.8,0-4.1,0c-0.1-4.1-2.2-7.4-4.2-10.7c-1.7-2.8-3.3-5.6-4-8.9c-1.1-4.9-0.6-9.5,2.4-13.7
			c2.5-3.6,6.1-5.6,10.4-6.4c4.6-0.9,8.9-0.3,13,2c5.2,3,7.6,7.5,7.8,13.4c0.1,4.1-1.2,7.8-3.2,11.3c-0.9,1.6-1.8,3.1-2.7,4.6
			c-1.5,2.6-2.7,5.3-2.8,8.4c-1.3,0-2.6,0-4,0c-0.1-1.5,0.2-3,0.6-4.4c0.8-2.9,2.3-5.5,3.8-8.1c1.4-2.3,2.9-4.7,3.6-7.3
			c1.2-4.4,0.8-8.5-2.4-12c-2.6-2.9-6-4.1-9.9-4.1c-3.8,0-7.2,1.1-9.9,3.9c-3.3,3.5-3.8,7.7-2.5,12.2c0.8,2.8,2.3,5.1,3.8,7.6
			c1.6,2.7,3.2,5.4,3.8,8.5C54.5,72.8,54.6,74,54.8,75.3z"/>
		<path class="st2" d="M58.9,85.4c-1.8,0-3.6,0-5.4,0c-1,0-1.7-0.6-1.7-1.5c0-0.9,0.7-1.5,1.7-1.5c3.7,0,7.3,0,11,0
			c1,0,1.6,0.6,1.6,1.5c0,0.9-0.6,1.5-1.6,1.5C62.6,85.4,60.8,85.4,58.9,85.4z"/>
		<path class="st2" d="M59,77.4c1.9,0,3.8,0,5.7,0c1.1,0,1.7,0.5,1.7,1.5c0,0.9-0.6,1.5-1.7,1.5c-3.8,0-7.6,0-11.4,0
			c-1.1,0-1.7-0.6-1.7-1.5c0-0.9,0.6-1.5,1.6-1.5C55.1,77.4,57,77.4,59,77.4z"/>
		<path class="st2" d="M29.3,52.9c0-1.3,0-2.6,0-4c2.8,0,5.5,0,8.3,0c0,1.3,0,2.6,0,4C34.9,52.9,32.1,52.9,29.3,52.9z"/>
		<path class="st2" d="M80.3,52.9c0-1.4,0-2.6,0-4c2.8,0,5.5,0,8.3,0c0,1.3,0,2.6,0,4C85.8,52.9,83.1,52.9,80.3,52.9z"/>
		<path class="st2" d="M39,60c0.6,1.3,1.1,2.5,1.7,3.8c-2.5,1.1-4.9,2.2-7.4,3.3c-0.6-1.2-1.1-2.5-1.7-3.8
			C34.1,62.2,36.5,61.1,39,60z"/>
		<path class="st2" d="M41.4,39c-0.8,1.1-1.6,2.2-2.4,3.4c-2.2-1.6-4.4-3.1-6.6-4.7c0.8-1.1,1.6-2.2,2.4-3.4
			C37,35.9,39.2,37.4,41.4,39z"/>
		<path class="st2" d="M83.1,34.3c0.8,1.1,1.6,2.2,2.4,3.4c-2.2,1.6-4.4,3.1-6.6,4.7c-0.8-1.1-1.6-2.2-2.4-3.4
			C78.7,37.4,80.9,35.9,83.1,34.3z"/>
		<path class="st2" d="M86.2,63.2c-0.5,1.3-1,2.5-1.6,3.8c-2.5-1-4.9-2-7.4-3c0.5-1.3,1-2.5,1.5-3.8C81.3,61.3,83.7,62.2,86.2,63.2z
			"/>
		<path class="st2" d="M50.1,32.3c-1.2,0.7-2.4,1.3-3.6,2c-1.2-2.2-2.4-4.5-3.6-6.7c1.2-0.7,2.4-1.3,3.6-2
			C47.7,27.9,48.9,30,50.1,32.3z"/>
		<path class="st2" d="M71.5,25.6c1.3,0.7,2.4,1.3,3.6,2c-1.2,2.3-2.4,4.5-3.6,6.7c-1.2-0.7-2.4-1.3-3.6-2
			C69.1,30.1,70.2,27.9,71.5,25.6z"/>
		<path class="st2" d="M61.1,23.7c0,2.5,0,4.9,0,7.3c-1.3,0-2.7,0-4.1,0c0-1.4,0-2.8,0-4.1c0-0.9,0-1.7,0-2.6c0-0.2,0.3-0.6,0.4-0.6
			C58.6,23.6,59.8,23.7,61.1,23.7z"/>
		<path class="st2" d="M53.5,87.2c3.7,0,7.2,0,10.9,0C61.3,91.1,57.5,92.3,53.5,87.2z"/>
	</g>
	<g class="st1">
		<path class="st3" d="M54.8,76.3c-0.2-1.3-0.3-2.5-0.6-3.7c-0.7-3.1-2.2-5.8-3.8-8.5c-1.4-2.4-3-4.8-3.8-7.6
			c-1.2-4.5-0.8-8.7,2.5-12.2c2.6-2.8,6.1-4,9.9-3.9c3.8,0,7.3,1.2,9.9,4.1c3.1,3.5,3.6,7.6,2.4,12c-0.7,2.7-2.2,5-3.6,7.3
			c-1.5,2.6-3.1,5.2-3.8,8.1c-0.4,1.5-0.7,2.9-0.6,4.4c1.4,0,2.7,0,4,0c0.1-3.1,1.3-5.8,2.8-8.4c0.9-1.5,1.8-3.1,2.7-4.6
			c2-3.5,3.3-7.2,3.2-11.3c-0.2-5.9-2.6-10.5-7.8-13.4c-4-2.3-8.4-2.9-13-2c-4.3,0.8-7.9,2.8-10.4,6.4c-2.9,4.2-3.4,8.8-2.4,13.7
			c0.7,3.2,2.4,6.1,4,8.9c2,3.3,4.1,6.6,4.2,10.7C52,76.3,53.3,76.3,54.8,76.3z M58.9,86.4c1.8,0,3.7,0,5.5,0c1,0,1.6-0.6,1.6-1.5
			c0-0.9-0.6-1.5-1.6-1.5c-3.7,0-7.3,0-11,0c-1,0-1.7,0.7-1.7,1.5c0,0.9,0.7,1.5,1.7,1.5C55.3,86.4,57.1,86.4,58.9,86.4z M59,78.4
			c-1.9,0-3.8,0-5.7,0c-1,0-1.6,0.5-1.6,1.5c0,1,0.6,1.5,1.7,1.5c3.8,0,7.6,0,11.4,0c1.1,0,1.7-0.6,1.7-1.5c0-0.9-0.6-1.5-1.7-1.5
			C62.7,78.4,60.8,78.4,59,78.4z M29.3,53.9c2.8,0,5.6,0,8.3,0c0-1.4,0-2.7,0-4c-2.8,0-5.5,0-8.3,0C29.3,51.3,29.3,52.6,29.3,53.9z
			 M80.3,53.9c2.8,0,5.5,0,8.3,0c0-1.4,0-2.7,0-4c-2.8,0-5.5,0-8.3,0C80.3,51.3,80.3,52.6,80.3,53.9z M39,61
			c-2.5,1.1-4.9,2.2-7.4,3.3c0.6,1.3,1.1,2.5,1.7,3.8c2.5-1.1,4.9-2.2,7.4-3.3C40.1,63.4,39.6,62.2,39,61z M41.4,40
			c-2.2-1.6-4.4-3.1-6.6-4.7c-0.8,1.1-1.6,2.2-2.4,3.4c2.2,1.6,4.3,3.1,6.6,4.7C39.8,42.2,40.6,41.1,41.4,40z M83.1,35.3
			c-2.2,1.6-4.4,3.1-6.6,4.7c0.8,1.2,1.6,2.2,2.4,3.4c2.2-1.6,4.4-3.1,6.6-4.7C84.7,37.5,83.9,36.4,83.1,35.3z M86.2,64.2
			c-2.5-1-4.9-2-7.4-3c-0.5,1.3-1,2.5-1.5,3.8c2.5,1,4.9,2,7.4,3C85.2,66.8,85.7,65.5,86.2,64.2z M50.1,33.3
			c-1.2-2.3-2.4-4.5-3.6-6.7c-1.3,0.7-2.4,1.3-3.6,2c1.2,2.3,2.4,4.5,3.6,6.7C47.7,34.6,48.8,34,50.1,33.3z M71.5,26.6
			c-1.2,2.3-2.4,4.5-3.6,6.7c1.2,0.7,2.4,1.3,3.6,2c1.2-2.3,2.4-4.5,3.6-6.7C73.9,27.9,72.7,27.3,71.5,26.6z M61.1,24.7
			c-1.2,0-2.5,0-3.7,0c-0.2,0-0.4,0.4-0.4,0.6c0,0.9,0,1.7,0,2.6c0,1.4,0,2.7,0,4.1c1.4,0,2.8,0,4.1,0
			C61.1,29.5,61.1,27.1,61.1,24.7z M53.5,88.2c4,5.1,7.8,3.9,10.9,0C60.7,88.2,57.2,88.2,53.5,88.2z"/>
		<path d="M54.8,76.3c-1.5,0-2.8,0-4.1,0c-0.1-4.1-2.2-7.4-4.2-10.7c-1.7-2.8-3.3-5.6-4-8.9c-1.1-4.9-0.6-9.5,2.4-13.7
			c2.5-3.6,6.1-5.6,10.4-6.4c4.6-0.9,8.9-0.3,13,2c5.2,3,7.6,7.5,7.8,13.4c0.1,4.1-1.2,7.8-3.2,11.3c-0.9,1.6-1.8,3.1-2.7,4.6
			c-1.5,2.6-2.7,5.3-2.8,8.4c-1.3,0-2.6,0-4,0c-0.1-1.5,0.2-3,0.6-4.4c0.8-2.9,2.3-5.5,3.8-8.1c1.4-2.3,2.9-4.7,3.6-7.3
			c1.2-4.4,0.8-8.5-2.4-12c-2.6-2.9-6-4.1-9.9-4.1c-3.8,0-7.2,1.1-9.9,3.9c-3.3,3.5-3.8,7.7-2.5,12.2c0.8,2.8,2.3,5.1,3.8,7.6
			c1.6,2.7,3.2,5.4,3.8,8.5C54.5,73.8,54.6,75,54.8,76.3z"/>
		<path d="M58.9,86.4c-1.8,0-3.6,0-5.4,0c-1,0-1.7-0.6-1.7-1.5c0-0.9,0.7-1.5,1.7-1.5c3.7,0,7.3,0,11,0c1,0,1.6,0.6,1.6,1.5
			c0,0.9-0.6,1.5-1.6,1.5C62.6,86.4,60.8,86.4,58.9,86.4z"/>
		<path d="M59,78.4c1.9,0,3.8,0,5.7,0c1.1,0,1.7,0.5,1.7,1.5c0,0.9-0.6,1.5-1.7,1.5c-3.8,0-7.6,0-11.4,0c-1.1,0-1.7-0.6-1.7-1.5
			c0-0.9,0.6-1.5,1.6-1.5C55.1,78.4,57,78.4,59,78.4z"/>
		<path d="M29.3,53.9c0-1.3,0-2.6,0-4c2.8,0,5.5,0,8.3,0c0,1.3,0,2.6,0,4C34.9,53.9,32.1,53.9,29.3,53.9z"/>
		<path d="M80.3,53.9c0-1.4,0-2.6,0-4c2.8,0,5.5,0,8.3,0c0,1.3,0,2.6,0,4C85.8,53.9,83.1,53.9,80.3,53.9z"/>
		<path d="M39,61c0.6,1.3,1.1,2.5,1.7,3.8c-2.5,1.1-4.9,2.2-7.4,3.3c-0.6-1.2-1.1-2.5-1.7-3.8C34.1,63.2,36.5,62.1,39,61z"/>
		<path d="M41.4,40c-0.8,1.1-1.6,2.2-2.4,3.4c-2.2-1.6-4.4-3.1-6.6-4.7c0.8-1.1,1.6-2.2,2.4-3.4C37,36.9,39.2,38.4,41.4,40z"/>
		<path d="M83.1,35.3c0.8,1.1,1.6,2.2,2.4,3.4c-2.2,1.6-4.4,3.1-6.6,4.7c-0.8-1.1-1.6-2.2-2.4-3.4C78.7,38.4,80.9,36.9,83.1,35.3z"
			/>
		<path d="M86.2,64.2c-0.5,1.3-1,2.5-1.6,3.8c-2.5-1-4.9-2-7.4-3c0.5-1.3,1-2.5,1.5-3.8C81.3,62.3,83.7,63.2,86.2,64.2z"/>
		<path d="M50.1,33.3c-1.2,0.7-2.4,1.3-3.6,2c-1.2-2.2-2.4-4.5-3.6-6.7c1.2-0.7,2.4-1.3,3.6-2C47.7,28.9,48.9,31,50.1,33.3z"/>
		<path d="M71.5,26.6c1.3,0.7,2.4,1.3,3.6,2c-1.2,2.3-2.4,4.5-3.6,6.7c-1.2-0.7-2.4-1.3-3.6-2C69.1,31.1,70.2,28.9,71.5,26.6z"/>
		<path d="M61.1,24.7c0,2.5,0,4.9,0,7.3c-1.3,0-2.7,0-4.1,0c0-1.4,0-2.8,0-4.1c0-0.9,0-1.7,0-2.6c0-0.2,0.3-0.6,0.4-0.6
			C58.6,24.6,59.8,24.7,61.1,24.7z"/>
		<path d="M53.5,88.2c3.7,0,7.2,0,10.9,0C61.3,92.1,57.5,93.3,53.5,88.2z"/>
	</g>
</g>
<g id="make" class="st0">
	<g class="st1">
		<path class="st2" d="M22.6,81.2c0.8-1,1.6-2.1,2.5-3c11.5-11.3,23.1-22.6,34.6-34c0.3-0.3,0.7-0.6,0.8-0.7c2.7,2.5,5.4,5,8.1,7.6
			c-4.1,4.5-8.1,9-12.1,13.4c-7.2,8-14.5,16-21.7,24c-2.8,3.1-4.9,3.1-7.8,0c-1.5-1.6-2.9-3.2-4.4-4.9C22.6,82.9,22.6,82,22.6,81.2z
			"/>
		<path class="st2" d="M94.2,50c-2.3,2.5-4.6,5.1-7.1,7.5c-0.5,0.5-1.7,0.7-2.5,0.5c-2.5-0.5-4-3.6-3.3-6c0.2-0.6,0-1.3-0.2-1.9
			c-1.9-4.3-6.7-5.2-9.9-1.9c-0.2,0.3-0.5,0.5-1.2,1.2c-1.2-1.4-2.4-2.8-3.6-4.2c-1.3-1.3-2.7-2.5-4-3.8c0.8-0.9,1.4-1.5,2-2.2
			c1.9-2.1,1.8-4.1-0.3-6.1c-4-3.7-8.8-5.5-14.1-6.2c-0.7-0.1-1.4-0.2-2.1-0.2c0-0.8,0-1.6,0-2.4c11.1-2.6,21.5-2.7,30,6.5
			c0.7,0.8,1.5,1.6,2.3,2.3c2.7,2.1,4.1,4.7,4.2,8.2c0.1,3,2.1,4.2,5.1,3.7c0.9-0.1,2,0.3,2.7,0.8c0.8,0.6,1.4,1.6,2.1,2.4
			C94.2,48.8,94.2,49.4,94.2,50z"/>
	</g>
	<g class="st1">
		<path d="M23.6,82.2c0.8-1,1.6-2.1,2.5-3c11.5-11.3,23.1-22.6,34.6-34c0.3-0.3,0.7-0.6,0.8-0.7c2.7,2.5,5.4,5,8.1,7.6
			c-4.1,4.5-8.1,9-12.1,13.4c-7.2,8-14.5,16-21.7,24c-2.8,3.1-4.9,3.1-7.8,0c-1.5-1.6-2.9-3.2-4.4-4.9C23.6,83.9,23.6,83,23.6,82.2z
			"/>
		<path d="M95.2,51c-2.3,2.5-4.6,5.1-7.1,7.5c-0.5,0.5-1.7,0.7-2.5,0.5c-2.5-0.5-4-3.6-3.3-6c0.2-0.6,0-1.3-0.2-1.9
			c-1.9-4.3-6.7-5.2-9.9-1.9c-0.2,0.3-0.5,0.5-1.2,1.2c-1.2-1.4-2.4-2.8-3.6-4.2c-1.3-1.3-2.7-2.5-4-3.8c0.8-0.9,1.4-1.5,2-2.2
			c1.9-2.1,1.8-4.1-0.3-6.1c-4-3.7-8.8-5.5-14.1-6.2c-0.7-0.1-1.4-0.2-2.1-0.2c0-0.8,0-1.6,0-2.4c11.1-2.6,21.5-2.7,30,6.5
			c0.7,0.8,1.5,1.6,2.3,2.3c2.7,2.1,4.1,4.7,4.2,8.2c0.1,3,2.1,4.2,5.1,3.7c0.9-0.1,2,0.3,2.7,0.8c0.8,0.6,1.4,1.6,2.1,2.4
			C95.2,49.8,95.2,50.4,95.2,51z"/>
	</g>
</g>
<g id="repeat" class="st0">
	<g class="st1">
		<path class="st4" d="M30.1,57.3C30.4,78.7,49.6,93.9,69.8,90c18.5-3.5,30.3-21.7,26.1-40.3c-3.3-14.8-20.6-28.4-32.3-25.3
			c0,3.9,0,7.9,0,11.8c16,1.1,22.3,14.8,20.5,24.7C82.1,72.3,72,79.5,60.3,78c-9.8-1.2-18.2-11.1-17.5-20.7c3.5,0,6.9,0,10.9,0
			c-5.9-7.2-11.6-14-17.3-20.9c-5.8,7-11.4,13.8-17.2,20.9C23.1,57.3,26.5,57.3,30.1,57.3z"/>
		<path class="st4" d="M30.1,57.3c-3.6,0-7,0-11,0c5.9-7.1,11.4-13.9,17.2-20.9c5.7,6.9,11.4,13.7,17.3,20.9c-3.9,0-7.4,0-10.9,0
			c-0.7,9.6,7.7,19.5,17.5,20.7c11.6,1.5,21.8-5.8,23.9-17.1c1.8-9.9-4.5-23.6-20.5-24.7c0-3.9,0-7.8,0-11.8
			c11.6-3,29,10.5,32.3,25.3c4.2,18.6-7.6,36.8-26.1,40.3C49.6,93.9,30.4,78.7,30.1,57.3z"/>
	</g>
	<g class="st1">
		<path class="st3" d="M31.1,58.3C31.4,79.7,50.6,94.9,70.8,91c18.5-3.5,30.3-21.7,26.1-40.3c-3.3-14.8-20.6-28.4-32.3-25.3
			c0,3.9,0,7.9,0,11.8c16,1.1,22.3,14.8,20.5,24.7C83.1,73.3,73,80.5,61.3,79c-9.8-1.2-18.2-11.1-17.5-20.7c3.5,0,6.9,0,10.9,0
			c-5.9-7.2-11.6-14-17.3-20.9c-5.8,7-11.4,13.8-17.2,20.9C24.1,58.3,27.5,58.3,31.1,58.3z"/>
		<path d="M31.1,58.3c-3.6,0-7,0-11,0c5.9-7.1,11.4-13.9,17.2-20.9c5.7,6.9,11.4,13.7,17.3,20.9c-3.9,0-7.4,0-10.9,0
			c-0.7,9.6,7.7,19.5,17.5,20.7c11.6,1.5,21.8-5.8,23.9-17.1c1.8-9.9-4.5-23.6-20.5-24.7c0-3.9,0-7.8,0-11.8
			c11.6-3,29,10.5,32.3,25.3c4.2,18.6-7.6,36.8-26.1,40.3C50.6,94.9,31.4,79.7,31.1,58.3z"/>
	</g>
</g>
<g id="Layer_4">
	<circle class="st4" cx="59.2" cy="58.8" r="59.2"/>
	<g>
		<path class="st5" d="M55.1,76.9c-0.2-1.3-0.3-2.5-0.6-3.7c-0.7-3.1-2.2-5.8-3.8-8.5c-1.4-2.4-3-4.8-3.8-7.6
			c-1.2-4.5-0.8-8.7,2.5-12.2c2.6-2.8,6.1-4,9.9-3.9c3.8,0,7.3,1.2,9.9,4.1c3.1,3.5,3.6,7.6,2.4,12c-0.7,2.7-2.2,5-3.6,7.3
			c-1.5,2.6-3.1,5.2-3.8,8.1c-0.4,1.5-0.7,2.9-0.6,4.4c1.4,0,2.7,0,4,0c0.1-3.1,1.3-5.8,2.8-8.4c0.9-1.5,1.8-3.1,2.7-4.6
			c2-3.5,3.3-7.2,3.2-11.3c-0.2-5.9-2.6-10.5-7.8-13.4c-4-2.3-8.4-2.9-13-2c-4.3,0.8-7.9,2.8-10.4,6.4c-2.9,4.2-3.4,8.8-2.4,13.7
			c0.7,3.2,2.4,6.1,4,8.9c2,3.3,4.1,6.6,4.2,10.7C52.3,76.9,53.6,76.9,55.1,76.9z M59.2,87c1.8,0,3.7,0,5.5,0c1,0,1.6-0.6,1.6-1.5
			c0-0.9-0.6-1.5-1.6-1.5c-3.7,0-7.3,0-11,0c-1,0-1.7,0.7-1.7,1.5c0,0.9,0.7,1.5,1.7,1.5C55.6,87.1,57.4,87,59.2,87z M59.3,79.1
			c-1.9,0-3.8,0-5.7,0c-1,0-1.6,0.5-1.6,1.5c0,1,0.6,1.5,1.7,1.5c3.8,0,7.6,0,11.4,0c1.1,0,1.7-0.6,1.7-1.5c0-0.9-0.6-1.5-1.7-1.5
			C63,79.1,61.1,79.1,59.3,79.1z M29.6,54.6c2.8,0,5.6,0,8.3,0c0-1.4,0-2.7,0-4c-2.8,0-5.5,0-8.3,0C29.6,52,29.6,53.3,29.6,54.6z
			 M80.6,54.6c2.8,0,5.5,0,8.3,0c0-1.4,0-2.7,0-4c-2.8,0-5.5,0-8.3,0C80.6,52,80.6,53.3,80.6,54.6z M39.3,61.6
			c-2.5,1.1-4.9,2.2-7.4,3.3c0.6,1.3,1.1,2.5,1.7,3.8c2.5-1.1,4.9-2.2,7.4-3.3C40.4,64.1,39.9,62.9,39.3,61.6z M41.7,40.7
			c-2.2-1.6-4.4-3.1-6.6-4.7c-0.8,1.1-1.6,2.2-2.4,3.4c2.2,1.6,4.3,3.1,6.6,4.7C40.1,42.9,40.9,41.8,41.7,40.7z M83.4,36
			c-2.2,1.6-4.4,3.1-6.6,4.7c0.8,1.2,1.6,2.2,2.4,3.4c2.2-1.6,4.4-3.1,6.6-4.7C85,38.2,84.2,37.1,83.4,36z M86.5,64.9
			c-2.5-1-4.9-2-7.4-3c-0.5,1.3-1,2.5-1.5,3.8c2.5,1,4.9,2,7.4,3C85.5,67.5,86,66.2,86.5,64.9z M50.4,34c-1.2-2.3-2.4-4.5-3.6-6.7
			c-1.3,0.7-2.4,1.3-3.6,2c1.2,2.3,2.4,4.5,3.6,6.7C48,35.3,49.1,34.7,50.4,34z M71.8,27.3c-1.2,2.3-2.4,4.5-3.6,6.7
			c1.2,0.7,2.4,1.3,3.6,2c1.2-2.3,2.4-4.5,3.6-6.7C74.2,28.6,73,28,71.8,27.3z M61.4,25.3c-1.2,0-2.5,0-3.7,0
			c-0.2,0-0.4,0.4-0.4,0.6c0,0.9,0,1.7,0,2.6c0,1.4,0,2.7,0,4.1c1.4,0,2.8,0,4.1,0C61.4,30.2,61.4,27.8,61.4,25.3z M53.8,88.9
			c4,5.1,7.8,3.9,10.9,0C61,88.9,57.5,88.9,53.8,88.9z"/>
		<path class="st5" d="M55.1,76.9c-1.5,0-2.8,0-4.1,0c-0.1-4.1-2.2-7.4-4.2-10.7c-1.7-2.8-3.3-5.6-4-8.9c-1.1-4.9-0.6-9.5,2.4-13.7
			c2.5-3.6,6.1-5.6,10.4-6.4c4.6-0.9,8.9-0.3,13,2c5.2,3,7.6,7.5,7.8,13.4c0.1,4.1-1.2,7.8-3.2,11.3c-0.9,1.6-1.8,3.1-2.7,4.6
			c-1.5,2.6-2.7,5.3-2.8,8.4c-1.3,0-2.6,0-4,0c-0.1-1.5,0.2-3,0.6-4.4c0.8-2.9,2.3-5.5,3.8-8.1c1.4-2.3,2.9-4.7,3.6-7.3
			c1.2-4.4,0.8-8.5-2.4-12c-2.6-2.9-6-4.1-9.9-4.1c-3.8,0-7.2,1.1-9.9,3.9c-3.3,3.5-3.8,7.7-2.5,12.2c0.8,2.8,2.3,5.1,3.8,7.6
			c1.6,2.7,3.2,5.4,3.8,8.5C54.8,74.4,54.9,75.6,55.1,76.9z"/>
		<path class="st5" d="M59.2,87c-1.8,0-3.6,0-5.4,0c-1,0-1.7-0.6-1.7-1.5c0-0.9,0.7-1.5,1.7-1.5c3.7,0,7.3,0,11,0
			c1,0,1.6,0.6,1.6,1.5c0,0.9-0.6,1.5-1.6,1.5C62.9,87.1,61.1,87,59.2,87z"/>
		<path class="st5" d="M59.3,79.1c1.9,0,3.8,0,5.7,0c1.1,0,1.7,0.5,1.7,1.5c0,0.9-0.6,1.5-1.7,1.5c-3.8,0-7.6,0-11.4,0
			c-1.1,0-1.7-0.6-1.7-1.5c0-0.9,0.6-1.5,1.6-1.5C55.4,79.1,57.3,79.1,59.3,79.1z"/>
		<path class="st5" d="M29.6,54.6c0-1.3,0-2.6,0-4c2.8,0,5.5,0,8.3,0c0,1.3,0,2.6,0,4C35.2,54.6,32.4,54.6,29.6,54.6z"/>
		<path class="st5" d="M80.6,54.6c0-1.4,0-2.6,0-4c2.8,0,5.5,0,8.3,0c0,1.3,0,2.6,0,4C86.1,54.6,83.4,54.6,80.6,54.6z"/>
		<path class="st5" d="M39.3,61.6c0.6,1.3,1.1,2.5,1.7,3.8c-2.5,1.1-4.9,2.2-7.4,3.3c-0.6-1.2-1.1-2.5-1.7-3.8
			C34.4,63.9,36.8,62.8,39.3,61.6z"/>
		<path class="st5" d="M41.7,40.7c-0.8,1.1-1.6,2.2-2.4,3.4c-2.2-1.6-4.4-3.1-6.6-4.7c0.8-1.1,1.6-2.2,2.4-3.4
			C37.3,37.5,39.5,39.1,41.7,40.7z"/>
		<path class="st5" d="M83.4,36c0.8,1.1,1.6,2.2,2.4,3.4c-2.2,1.6-4.4,3.1-6.6,4.7c-0.8-1.1-1.6-2.2-2.4-3.4
			C79,39.1,81.2,37.5,83.4,36z"/>
		<path class="st5" d="M86.5,64.9c-0.5,1.3-1,2.5-1.6,3.8c-2.5-1-4.9-2-7.4-3c0.5-1.3,1-2.5,1.5-3.8C81.6,62.9,84,63.9,86.5,64.9z"
			/>
		<path class="st5" d="M50.4,34c-1.2,0.7-2.4,1.3-3.6,2c-1.2-2.2-2.4-4.5-3.6-6.7c1.2-0.7,2.4-1.3,3.6-2C48,29.5,49.2,31.7,50.4,34z
			"/>
		<path class="st5" d="M71.8,27.3c1.3,0.7,2.4,1.3,3.6,2c-1.2,2.3-2.4,4.5-3.6,6.7c-1.2-0.7-2.4-1.3-3.6-2
			C69.4,31.8,70.5,29.6,71.8,27.3z"/>
		<path class="st5" d="M61.4,25.3c0,2.5,0,4.9,0,7.3c-1.3,0-2.7,0-4.1,0c0-1.4,0-2.8,0-4.1c0-0.9,0-1.7,0-2.6c0-0.2,0.3-0.6,0.4-0.6
			C58.9,25.3,60.1,25.3,61.4,25.3z"/>
		<path class="st5" d="M53.8,88.9c3.7,0,7.2,0,10.9,0C61.6,92.8,57.8,94,53.8,88.9z"/>
	</g>
</g>
</svg>
