<?xml version="1.0" encoding="utf-8"?>
<!-- Generator: Adobe Illustrator 21.0.0, SVG Export Plug-In . SVG Version: 6.00 Build 0)  -->
<svg version="1.1" id="Layer_1" xmlns="http://www.w3.org/2000/svg" xmlns:xlink="http://www.w3.org/1999/xlink" x="0px" y="0px"
	 viewBox="0 0 377.2 135.4" style="enable-background:new 0 0 377.2 135.4;" xml:space="preserve">
<style type="text/css">
	.st0{fill:#F4F2F2;}
</style>
<g id="THINK">
	<path class="st0" d="M130.7,40.1c2.8,2.7,4.2,3.9,6.9,6.3c4.3-0.4,6.5-0.6,10.8-1c-4.8-3.9-7.2-6.1-11.9-10.9c-0.1,0-0.1,0-0.2,0
		c4.7-4.4,7-6.4,11.7-10c-4.7-0.4-7.1-0.7-11.8-1.1c-4.5,4-6.7,6.3-11.1,11.1V22.3c-3.3-0.3-4.9-0.5-8.2-0.8v26.8
		c2.8-0.3,4.2-0.4,6.9-0.6C126.5,44.5,127.9,43,130.7,40.1z M72.2,17.4c-3.3-0.3-4.9-0.5-8.2-0.8v36.7c3.3-0.3,4.9-0.5,8.2-0.8V17.4
		z M56.6,54V15.9c-3.2-0.3-4.8-0.5-8-0.8V33c-4.5,0-6.8-0.1-11.3-0.1V14.1c-3.3-0.3-4.9-0.5-8.2-0.8v43.2c3.3-0.3,4.9-0.5,8.2-0.8
		v-14c4.5-0.1,6.8-0.2,11.3-0.3v13.3C51.8,54.4,53.4,54.3,56.6,54z M0,20.8c3.2,0.2,4.8,0.3,8,0.4v37.2c3.3-0.3,4.9-0.5,8.2-0.8v-36
		c3.2,0.2,4.8,0.3,8,0.4v-9.3C14.6,12,9.7,11.5,0,10.6V20.8z M87.7,29.2c6.2,8.9,9.4,13,15.6,20.4c2.9-0.3,4.3-0.4,7.2-0.7v-28
		c-3.3-0.3-4.9-0.5-8.2-0.8v14.2c-4.4-5.7-6.6-8.7-11-15.2c-4.7-0.4-7-0.7-11.7-1.1v33.8c3.2-0.3,4.9-0.5,8.1-0.8V29.2z"/>
</g>
<path class="st0" d="M205,52.2c0.6,0.6,1.4,0.9,2.2,0.9s1.6-0.3,2.2-0.9c0.6-0.6,0.9-1.4,0.9-2.2s-0.3-1.6-0.9-2.2
	c-1.2-1.2-3.2-1.2-4.5,0C203.8,48.9,203.8,50.9,205,52.2L205,52.2z M207.3,48.9c0.6,0,1,0.5,1,1c0,0.6-0.5,1-1,1c-0.6,0-1-0.5-1-1
	C206.2,49.4,206.7,48.9,207.3,48.9z M172.3,21.5l8.7,8.7l-22.4,22.4L165,59l22.4-22.4L198.8,48c-0.6,2.8,0.2,5.8,2.3,7.9
	c1.6,1.6,3.7,2.5,6,2.5s4.4-0.9,6-2.5c3.3-3.3,3.3-8.7,0-12c-2.1-2.1-5-2.9-7.9-2.3l-11.4-11.4l9-9l5.9,5.9l8.9-8.9l-1.1-1.1
	c-2.5-2.5-2.7-7.1-2.7-7.2V9.3l-5.6-5.6h-0.6c0,0-4.6-0.2-7.2-2.7l-0.9-1l-8.9,8.9l5.9,5.9l-9,9l-8.7-8.7c1.4-3.9,0.5-8.3-2.5-11.3
	c-3.3-3.3-8.2-4.1-12.4-2L162,2.6l7.7,7.7c0.3,0.3,0.4,0.7,0.4,1.1c0,0.4-0.2,0.8-0.4,1.1c-0.6,0.6-1.6,0.6-2.1,0l-7.7-7.7L159,6.7
	c-2,4.1-1.2,9.1,2,12.4C164,21.9,168.4,22.9,172.3,21.5z M204.5,45l0.9-0.3c2-0.7,4.2-0.2,5.7,1.3c2.2,2.2,2.2,5.7,0,7.8
	c-2.1,2.1-5.7,2.1-7.8,0c-1.5-1.5-2-3.7-1.3-5.7l0.3-0.9l-12.8-12.8l2.1-2.3L204.5,45z M207,6.7l4,4c0,0.2,0.1,0.6,0.1,0.9l-5-5
	C206.4,6.6,206.7,6.7,207,6.7z M194.8,8.9l4.7-4.7l14,14l-4.7,4.7L194.8,8.9z M198.1,17.3l2.2,2.2L165,54.8l-2.2-2.2L198.1,17.3z
	 M160.9,10l4.5,4.5c1.7,1.7,4.6,1.7,6.3,0c0.8-0.8,1.3-2,1.3-3.2s-0.5-2.3-1.3-3.2l-4.5-4.5c2.5-0.4,5,0.3,6.8,2.2
	c2.3,2.3,2.9,5.9,1.5,8.9l-0.5,1l10.2,10.2l-2.2,2.2l-10-10.2l-1,0.5c-3,1.4-6.6,0.8-8.9-1.5C161.3,15,160.5,12.5,160.9,10z"/>
<g id="MAKE">
	<path class="st0" d="M331.9,34.1c4.7-7.7,7-11.7,11.7-20.3c-4.7,0.5-7.1,0.7-11.8,1.1c-4.5,8.1-6.7,11.9-11.1,19.2v-18
		c-3.3,0.3-4.9,0.5-8.2,0.8V53c2.8,0.3,4.2,0.4,6.9,0.7c2.8-4,4.2-6.1,6.9-10.4c2.8,4.6,4.2,6.9,6.9,11.8c4.3,0.4,6.5,0.6,10.8,1
		c-4.8-9.2-7.2-13.6-11.9-21.9C332,34.1,332,34.1,331.9,34.1z M241.7,28.6c3.1,3.6,4.7,5.5,7.8,9.6c2.1,0.1,3.1,0.1,5.2,0.1
		c3.1-4.1,4.7-6.3,7.8-10.9v20.7c3.2,0.3,4.9,0.5,8.1,0.8v-28c-5.1,0.5-7.6,0.7-12.6,1.2c-2.4,2.9-3.5,4.3-5.9,6.9
		c-2.4-2.4-3.5-3.6-5.9-5.8c-5.1,0.5-7.6,0.7-12.6,1.2v20.9c3.3,0.3,4.9,0.5,8.2,0.8C241.7,39.1,241.7,35.6,241.7,28.6z M377.2,21.1
		V10.6c-10.4,1-15.7,1.5-26.1,2.5v43.6c10.4,1,15.7,1.5,26.1,2.5V49c-7.2-0.4-10.8-0.6-18.1-1v-8.2L369,40v-9.9
		c-4,0.1-6,0.1-9.9,0.2V22C366.3,21.7,369.9,21.5,377.2,21.1z M285,43.1c5.2,0.3,7.7,0.4,12.9,0.7c1.1,3.2,1.6,4.8,2.7,8.1
		c3.4,0.3,5.1,0.5,8.4,0.8c-4.5-14.6-6.8-21.4-11.4-34.3c-5,0.5-7.5,0.7-12.5,1.2c-4.5,12.7-6.8,18.7-11.4,29.7
		c3.4,0.3,5.1,0.5,8.4,0.8C283.3,47.3,283.9,45.9,285,43.1z M291.4,25.7c1.6,4.2,2.3,6.4,3.9,10.8c-3.2,0-4.7,0-7.9-0.1
		C289,32.3,289.8,30.1,291.4,25.7z"/>
</g>
<g id="REPEAT">
	<path class="st0" d="M235.9,96.5c5.2,0.1,7.7,0.1,12.9,0.2c1.1,3.7,1.6,5.5,2.7,9.1h8.4c-4.5-15-6.8-22.8-11.3-38.5
		c-5-0.4-7.5-0.6-12.5-0.9c-4.6,15.5-6.9,23.4-11.4,39.4h8.4C234.2,102.1,234.8,100.2,235.9,96.5z M242.4,75.1
		c1.5,5.3,2.3,8,3.9,13.3c-3.1-0.1-4.7-0.2-7.9-0.2C240,82.9,240.8,80.3,242.4,75.1z M221.8,74.3c0-3.5,0-5.2,0-8.6
		c-10.5-0.4-15.7-0.6-26.1-0.6c0,16.3,0,24.5,0,40.8h26.1c0-3.4,0-5.1,0-8.5c-7.2-0.1-10.8-0.1-18.1-0.1c0-2.9,0-4.4,0-7.4
		c4,0,6,0,10,0.1c0-3.4,0-5.1,0-8.5c-4-0.1-6-0.1-9.9-0.1c0-3,0-4.5,0-7.5C210.9,74,214.5,74.1,221.8,74.3z M128.5,105.8h26.1
		c0-3.4,0-5.1,0-8.4c-7.2,0.1-10.8,0.1-18.1,0.2c0-2.8,0-4.2,0-7.1c4-0.1,6-0.2,9.9-0.2c0-3.3,0-5,0-8.3c-4,0.1-6,0.2-9.9,0.4
		c0-2.9,0-4.3,0-7.1c7.2-0.4,10.8-0.6,18.1-0.8c0-3.4,0-5.2,0-8.6c-10.4,0.5-15.7,0.8-26.1,1.6C128.5,82.8,128.5,90.5,128.5,105.8z
		 M278.4,105.8c0-11.3,0-16.9,0-28.2c3.2,0.3,4.8,0.4,8,0.8v-7.3c-9.7-1.2-14.5-1.8-24.2-2.7c0,3.2,0,4.7,0,7.9
		c3.2,0.2,4.8,0.4,8,0.6c0,11.6,0,17.4,0,28.9C270.2,105.8,278.4,105.8,278.4,105.8z M187.5,90.6c0.8-0.8,1.2-1.9,1.2-3.1V69.3
		c0-1.2-0.4-2.2-1.2-3s-1.8-1.3-2.9-1.2c-9.5,0.1-14.3,0.2-23.8,0.5c0,16.1,0,24.2,0.1,40.3h8.3c0-5.6,0-8.4,0-13.9
		c6.2-0.1,9.3-0.1,15.5-0.1C185.8,91.8,186.7,91.4,187.5,90.6z M169.1,83.3c0-3.7,0-5.6,0-9.4c4.6-0.1,6.8-0.1,11.4-0.2
		c0,3.8,0,5.7,0,9.4C176,83.2,173.7,83.2,169.1,83.3z M93.2,105.8h8.2c0-4.9,0-7.4,0-12.3c2.4-0.1,3.5-0.1,5.9-0.2
		c3.2,4.9,4.8,7.4,8,12.5h9.5c-3.2-5.2-4.8-7.8-8-12.8c1.2,0,2.1-0.5,2.9-1.3s1.2-1.8,1.2-2.9c0-6.7,0-10.1,0-16.8
		c0-1.1-0.4-2-1.2-2.7c-0.8-0.7-1.8-1-2.9-0.9c-9.4,0.9-14.2,1.4-23.6,2.6V105.8z M112.7,76.7c0,3.4,0,5.1,0,8.5
		c-4.5,0.3-6.8,0.4-11.4,0.7c0-3.3,0-5,0-8.3C105.9,77.3,108.2,77.1,112.7,76.7z"/>
</g>
<g id="BATTERY">
	<path class="st0" d="M309.7,132.4H64.4v-23h-3v26h251.3v-26h-3V132.4z"/>
</g>
<g id="PLUS_x5F_MINUS">
	<path class="st0" d="M304.1,91.8h14.2v-4h-14.2V91.8z M64.9,96.9v-5.1H70v-4h-5.1v-5.1h-4v5.1h-5.1v4h5.1v5.1H64.9z"/>
</g>
</svg>
