<?xml version="1.0" encoding="utf-8"?>
<!-- Generator: Adobe Illustrator 21.0.0, SVG Export Plug-In . SVG Version: 6.00 Build 0)  -->
<svg version="1.1" xmlns="http://www.w3.org/2000/svg" xmlns:xlink="http://www.w3.org/1999/xlink" x="0px" y="0px"
	 viewBox="0 0 118.5 118.5" style="enable-background:new 0 0 118.5 118.5;" xml:space="preserve">
<style type="text/css">
	.st0{display:none;}
	.st1{display:inline;}
	.st2{fill:#F06924;}
	.st3{fill:#FFFFFF;}
	.st4{fill:#F06925;}
	.st5{display:inline;fill:#F06925;}
	.st6{fill:#383838;stroke:#252525;stroke-width:0.25;stroke-miterlimit:10;}
</style>
<g id="think" class="st0">
	<g class="st1">
		<path class="st2" d="M54.8,75.5c-0.2-1.3-0.3-2.5-0.6-3.7c-0.7-3.1-2.2-5.8-3.8-8.5c-1.4-2.4-3-4.8-3.8-7.6
			c-1.2-4.5-0.8-8.7,2.5-12.2c2.6-2.8,6.1-4,9.9-3.9c3.8,0,7.3,1.2,9.9,4.1c3.1,3.5,3.6,7.6,2.4,12c-0.7,2.7-2.2,5-3.6,7.3
			c-1.5,2.6-3.1,5.2-3.8,8.1c-0.4,1.5-0.7,2.9-0.6,4.4c1.4,0,2.7,0,4,0c0.1-3.1,1.3-5.8,2.8-8.4c0.9-1.5,1.8-3.1,2.7-4.6
			c2-3.5,3.3-7.2,3.2-11.3c-0.2-5.9-2.6-10.5-7.8-13.4c-4-2.3-8.4-2.9-13-2c-4.3,0.8-7.9,2.8-10.4,6.4c-2.9,4.2-3.4,8.8-2.4,13.7
			c0.7,3.2,2.4,6.1,4,8.9c2,3.3,4.1,6.6,4.2,10.7C52,75.5,53.3,75.5,54.8,75.5z M58.9,85.6c1.8,0,3.7,0,5.5,0c1,0,1.6-0.6,1.6-1.5
			c0-0.9-0.6-1.5-1.6-1.5c-3.7,0-7.3,0-11,0c-1,0-1.7,0.7-1.7,1.5c0,0.9,0.7,1.5,1.7,1.5C55.3,85.6,57.1,85.6,58.9,85.6z M59,77.6
			c-1.9,0-3.8,0-5.7,0c-1,0-1.6,0.5-1.6,1.5c0,1,0.6,1.5,1.7,1.5c3.8,0,7.6,0,11.4,0c1.1,0,1.7-0.6,1.7-1.5c0-0.9-0.6-1.5-1.7-1.5
			C62.7,77.6,60.8,77.6,59,77.6z M29.3,53.1c2.8,0,5.6,0,8.3,0c0-1.4,0-2.7,0-4c-2.8,0-5.5,0-8.3,0C29.3,50.5,29.3,51.8,29.3,53.1z
			 M80.3,53.1c2.8,0,5.5,0,8.3,0c0-1.4,0-2.7,0-4c-2.8,0-5.5,0-8.3,0C80.3,50.5,80.3,51.8,80.3,53.1z M39,60.2
			c-2.5,1.1-4.9,2.2-7.4,3.3c0.6,1.3,1.1,2.5,1.7,3.8c2.5-1.1,4.9-2.2,7.4-3.3C40.1,62.7,39.6,61.5,39,60.2z M41.4,39.2
			c-2.2-1.6-4.4-3.1-6.6-4.7c-0.8,1.1-1.6,2.2-2.4,3.4c2.2,1.6,4.3,3.1,6.6,4.7C39.8,41.4,40.6,40.3,41.4,39.2z M83.1,34.5
			c-2.2,1.6-4.4,3.1-6.6,4.7c0.8,1.2,1.6,2.2,2.4,3.4c2.2-1.6,4.4-3.1,6.6-4.7C84.7,36.7,83.9,35.6,83.1,34.5z M86.2,63.5
			c-2.5-1-4.9-2-7.4-3c-0.5,1.3-1,2.5-1.5,3.8c2.5,1,4.9,2,7.4,3C85.2,66,85.7,64.8,86.2,63.5z M50.1,32.5c-1.2-2.3-2.4-4.5-3.6-6.7
			c-1.3,0.7-2.4,1.3-3.6,2c1.2,2.3,2.4,4.5,3.6,6.7C47.7,33.8,48.8,33.2,50.1,32.5z M71.5,25.8c-1.2,2.3-2.4,4.5-3.6,6.7
			c1.2,0.7,2.4,1.3,3.6,2c1.2-2.3,2.4-4.5,3.6-6.7C73.9,27.1,72.7,26.5,71.5,25.8z M61.1,23.9c-1.2,0-2.5,0-3.7,0
			c-0.2,0-0.4,0.4-0.4,0.6c0,0.9,0,1.7,0,2.6c0,1.4,0,2.7,0,4.1c1.4,0,2.8,0,4.1,0C61.1,28.8,61.1,26.4,61.1,23.9z M53.5,87.5
			c4,5.1,7.8,3.9,10.9,0C60.7,87.5,57.2,87.5,53.5,87.5z"/>
		<path class="st2" d="M54.8,75.5c-1.5,0-2.8,0-4.1,0c-0.1-4.1-2.2-7.4-4.2-10.7c-1.7-2.8-3.3-5.6-4-8.9c-1.1-4.9-0.6-9.5,2.4-13.7
			c2.5-3.6,6.1-5.6,10.4-6.4c4.6-0.9,8.9-0.3,13,2c5.2,3,7.6,7.5,7.8,13.4c0.1,4.1-1.2,7.8-3.2,11.3c-0.9,1.6-1.8,3.1-2.7,4.6
			c-1.5,2.6-2.7,5.3-2.8,8.4c-1.3,0-2.6,0-4,0c-0.1-1.5,0.2-3,0.6-4.4c0.8-2.9,2.3-5.5,3.8-8.1c1.4-2.3,2.9-4.7,3.6-7.3
			c1.2-4.4,0.8-8.5-2.4-12c-2.6-2.9-6-4.1-9.9-4.1c-3.8,0-7.2,1.1-9.9,3.9c-3.3,3.5-3.8,7.7-2.5,12.2c0.8,2.8,2.3,5.1,3.8,7.6
			c1.6,2.7,3.2,5.4,3.8,8.5C54.5,73,54.6,74.2,54.8,75.5z"/>
		<path class="st2" d="M58.9,85.6c-1.8,0-3.6,0-5.4,0c-1,0-1.7-0.6-1.7-1.5c0-0.9,0.7-1.5,1.7-1.5c3.7,0,7.3,0,11,0
			c1,0,1.6,0.6,1.6,1.5c0,0.9-0.6,1.5-1.6,1.5C62.6,85.6,60.8,85.6,58.9,85.6z"/>
		<path class="st2" d="M59,77.6c1.9,0,3.8,0,5.7,0c1.1,0,1.7,0.5,1.7,1.5c0,0.9-0.6,1.5-1.7,1.5c-3.8,0-7.6,0-11.4,0
			c-1.1,0-1.7-0.6-1.7-1.5c0-0.9,0.6-1.5,1.6-1.5C55.1,77.6,57,77.6,59,77.6z"/>
		<path class="st2" d="M29.3,53.1c0-1.3,0-2.6,0-4c2.8,0,5.5,0,8.3,0c0,1.3,0,2.6,0,4C34.9,53.1,32.1,53.1,29.3,53.1z"/>
		<path class="st2" d="M80.3,53.1c0-1.4,0-2.6,0-4c2.8,0,5.5,0,8.3,0c0,1.3,0,2.6,0,4C85.8,53.1,83.1,53.1,80.3,53.1z"/>
		<path class="st2" d="M39,60.2c0.6,1.3,1.1,2.5,1.7,3.8c-2.5,1.1-4.9,2.2-7.4,3.3c-0.6-1.2-1.1-2.5-1.7-3.8
			C34.1,62.4,36.5,61.3,39,60.2z"/>
		<path class="st2" d="M41.4,39.2c-0.8,1.1-1.6,2.2-2.4,3.4c-2.2-1.6-4.4-3.1-6.6-4.7c0.8-1.1,1.6-2.2,2.4-3.4
			C37,36.1,39.2,37.6,41.4,39.2z"/>
		<path class="st2" d="M83.1,34.5c0.8,1.1,1.6,2.2,2.4,3.4c-2.2,1.6-4.4,3.1-6.6,4.7c-0.8-1.1-1.6-2.2-2.4-3.4
			C78.7,37.6,80.9,36.1,83.1,34.5z"/>
		<path class="st2" d="M86.2,63.5c-0.5,1.3-1,2.5-1.6,3.8c-2.5-1-4.9-2-7.4-3c0.5-1.3,1-2.5,1.5-3.8C81.3,61.5,83.7,62.4,86.2,63.5z
			"/>
		<path class="st2" d="M50.1,32.5c-1.2,0.7-2.4,1.3-3.6,2c-1.2-2.2-2.4-4.5-3.6-6.7c1.2-0.7,2.4-1.3,3.6-2
			C47.7,28.1,48.9,30.3,50.1,32.5z"/>
		<path class="st2" d="M71.5,25.8c1.3,0.7,2.4,1.3,3.6,2c-1.2,2.3-2.4,4.5-3.6,6.7c-1.2-0.7-2.4-1.3-3.6-2
			C69.1,30.3,70.2,28.1,71.5,25.8z"/>
		<path class="st2" d="M61.1,23.9c0,2.5,0,4.9,0,7.3c-1.3,0-2.7,0-4.1,0c0-1.4,0-2.8,0-4.1c0-0.9,0-1.7,0-2.6c0-0.2,0.3-0.6,0.4-0.6
			C58.6,23.8,59.8,23.9,61.1,23.9z"/>
		<path class="st2" d="M53.5,87.5c3.7,0,7.2,0,10.9,0C61.3,91.4,57.5,92.5,53.5,87.5z"/>
	</g>
	<g class="st1">
		<path class="st3" d="M54.8,76.5c-0.2-1.3-0.3-2.5-0.6-3.7c-0.7-3.1-2.2-5.8-3.8-8.5c-1.4-2.4-3-4.8-3.8-7.6
			c-1.2-4.5-0.8-8.7,2.5-12.2c2.6-2.8,6.1-4,9.9-3.9c3.8,0,7.3,1.2,9.9,4.1c3.1,3.5,3.6,7.6,2.4,12c-0.7,2.7-2.2,5-3.6,7.3
			c-1.5,2.6-3.1,5.2-3.8,8.1c-0.4,1.5-0.7,2.9-0.6,4.4c1.4,0,2.7,0,4,0c0.1-3.1,1.3-5.8,2.8-8.4c0.9-1.5,1.8-3.1,2.7-4.6
			c2-3.5,3.3-7.2,3.2-11.3c-0.2-5.9-2.6-10.5-7.8-13.4c-4-2.3-8.4-2.9-13-2c-4.3,0.8-7.9,2.8-10.4,6.4c-2.9,4.2-3.4,8.8-2.4,13.7
			c0.7,3.2,2.4,6.1,4,8.9c2,3.3,4.1,6.6,4.2,10.7C52,76.5,53.3,76.5,54.8,76.5z M58.9,86.6c1.8,0,3.7,0,5.5,0c1,0,1.6-0.6,1.6-1.5
			c0-0.9-0.6-1.5-1.6-1.5c-3.7,0-7.3,0-11,0c-1,0-1.7,0.7-1.7,1.5c0,0.9,0.7,1.5,1.7,1.5C55.3,86.6,57.1,86.6,58.9,86.6z M59,78.6
			c-1.9,0-3.8,0-5.7,0c-1,0-1.6,0.5-1.6,1.5c0,1,0.6,1.5,1.7,1.5c3.8,0,7.6,0,11.4,0c1.1,0,1.7-0.6,1.7-1.5c0-0.9-0.6-1.5-1.7-1.5
			C62.7,78.6,60.8,78.6,59,78.6z M29.3,54.1c2.8,0,5.6,0,8.3,0c0-1.4,0-2.7,0-4c-2.8,0-5.5,0-8.3,0C29.3,51.5,29.3,52.8,29.3,54.1z
			 M80.3,54.1c2.8,0,5.5,0,8.3,0c0-1.4,0-2.7,0-4c-2.8,0-5.5,0-8.3,0C80.3,51.5,80.3,52.8,80.3,54.1z M39,61.2
			c-2.5,1.1-4.9,2.2-7.4,3.3c0.6,1.3,1.1,2.5,1.7,3.8c2.5-1.1,4.9-2.2,7.4-3.3C40.1,63.7,39.6,62.5,39,61.2z M41.4,40.2
			c-2.2-1.6-4.4-3.1-6.6-4.7c-0.8,1.1-1.6,2.2-2.4,3.4c2.2,1.6,4.3,3.1,6.6,4.7C39.8,42.4,40.6,41.3,41.4,40.2z M83.1,35.5
			c-2.2,1.6-4.4,3.1-6.6,4.7c0.8,1.2,1.6,2.2,2.4,3.4c2.2-1.6,4.4-3.1,6.6-4.7C84.7,37.7,83.9,36.6,83.1,35.5z M86.2,64.5
			c-2.5-1-4.9-2-7.4-3c-0.5,1.3-1,2.5-1.5,3.8c2.5,1,4.9,2,7.4,3C85.2,67,85.7,65.8,86.2,64.5z M50.1,33.5c-1.2-2.3-2.4-4.5-3.6-6.7
			c-1.3,0.7-2.4,1.3-3.6,2c1.2,2.3,2.4,4.5,3.6,6.7C47.7,34.8,48.8,34.2,50.1,33.5z M71.5,26.8c-1.2,2.3-2.4,4.5-3.6,6.7
			c1.2,0.7,2.4,1.3,3.6,2c1.2-2.3,2.4-4.5,3.6-6.7C73.9,28.1,72.7,27.5,71.5,26.8z M61.1,24.9c-1.2,0-2.5,0-3.7,0
			c-0.2,0-0.4,0.4-0.4,0.6c0,0.9,0,1.7,0,2.6c0,1.4,0,2.7,0,4.1c1.4,0,2.8,0,4.1,0C61.1,29.8,61.1,27.4,61.1,24.9z M53.5,88.5
			c4,5.1,7.8,3.9,10.9,0C60.7,88.5,57.2,88.5,53.5,88.5z"/>
		<path d="M54.8,76.5c-1.5,0-2.8,0-4.1,0c-0.1-4.1-2.2-7.4-4.2-10.7c-1.7-2.8-3.3-5.6-4-8.9c-1.1-4.9-0.6-9.5,2.4-13.7
			c2.5-3.6,6.1-5.6,10.4-6.4c4.6-0.9,8.9-0.3,13,2c5.2,3,7.6,7.5,7.8,13.4c0.1,4.1-1.2,7.8-3.2,11.3c-0.9,1.6-1.8,3.1-2.7,4.6
			c-1.5,2.6-2.7,5.3-2.8,8.4c-1.3,0-2.6,0-4,0c-0.1-1.5,0.2-3,0.6-4.4c0.8-2.9,2.3-5.5,3.8-8.1c1.4-2.3,2.9-4.7,3.6-7.3
			c1.2-4.4,0.8-8.5-2.4-12c-2.6-2.9-6-4.1-9.9-4.1c-3.8,0-7.2,1.1-9.9,3.9c-3.3,3.5-3.8,7.7-2.5,12.2c0.8,2.8,2.3,5.1,3.8,7.6
			c1.6,2.7,3.2,5.4,3.8,8.5C54.5,74,54.6,75.2,54.8,76.5z"/>
		<path d="M58.9,86.6c-1.8,0-3.6,0-5.4,0c-1,0-1.7-0.6-1.7-1.5c0-0.9,0.7-1.5,1.7-1.5c3.7,0,7.3,0,11,0c1,0,1.6,0.6,1.6,1.5
			c0,0.9-0.6,1.5-1.6,1.5C62.6,86.6,60.8,86.6,58.9,86.6z"/>
		<path d="M59,78.6c1.9,0,3.8,0,5.7,0c1.1,0,1.7,0.5,1.7,1.5c0,0.9-0.6,1.5-1.7,1.5c-3.8,0-7.6,0-11.4,0c-1.1,0-1.7-0.6-1.7-1.5
			c0-0.9,0.6-1.5,1.6-1.5C55.1,78.6,57,78.6,59,78.6z"/>
		<path d="M29.3,54.1c0-1.3,0-2.6,0-4c2.8,0,5.5,0,8.3,0c0,1.3,0,2.6,0,4C34.9,54.1,32.1,54.1,29.3,54.1z"/>
		<path d="M80.3,54.1c0-1.4,0-2.6,0-4c2.8,0,5.5,0,8.3,0c0,1.3,0,2.6,0,4C85.8,54.1,83.1,54.1,80.3,54.1z"/>
		<path d="M39,61.2c0.6,1.3,1.1,2.5,1.7,3.8c-2.5,1.1-4.9,2.2-7.4,3.3c-0.6-1.2-1.1-2.5-1.7-3.8C34.1,63.4,36.5,62.3,39,61.2z"/>
		<path d="M41.4,40.2c-0.8,1.1-1.6,2.2-2.4,3.4c-2.2-1.6-4.4-3.1-6.6-4.7c0.8-1.1,1.6-2.2,2.4-3.4C37,37.1,39.2,38.6,41.4,40.2z"/>
		<path d="M83.1,35.5c0.8,1.1,1.6,2.2,2.4,3.4c-2.2,1.6-4.4,3.1-6.6,4.7c-0.8-1.1-1.6-2.2-2.4-3.4C78.7,38.6,80.9,37.1,83.1,35.5z"
			/>
		<path d="M86.2,64.5c-0.5,1.3-1,2.5-1.6,3.8c-2.5-1-4.9-2-7.4-3c0.5-1.3,1-2.5,1.5-3.8C81.3,62.5,83.7,63.4,86.2,64.5z"/>
		<path d="M50.1,33.5c-1.2,0.7-2.4,1.3-3.6,2c-1.2-2.2-2.4-4.5-3.6-6.7c1.2-0.7,2.4-1.3,3.6-2C47.7,29.1,48.9,31.3,50.1,33.5z"/>
		<path d="M71.5,26.8c1.3,0.7,2.4,1.3,3.6,2c-1.2,2.3-2.4,4.5-3.6,6.7c-1.2-0.7-2.4-1.3-3.6-2C69.1,31.3,70.2,29.1,71.5,26.8z"/>
		<path d="M61.1,24.9c0,2.5,0,4.9,0,7.3c-1.3,0-2.7,0-4.1,0c0-1.4,0-2.8,0-4.1c0-0.9,0-1.7,0-2.6c0-0.2,0.3-0.6,0.4-0.6
			C58.6,24.8,59.8,24.9,61.1,24.9z"/>
		<path d="M53.5,88.5c3.7,0,7.2,0,10.9,0C61.3,92.4,57.5,93.5,53.5,88.5z"/>
	</g>
</g>
<g id="make" class="st0">
	<g class="st1">
		<path class="st2" d="M22.6,81.4c0.8-1,1.6-2.1,2.5-3c11.5-11.3,23.1-22.6,34.6-34c0.3-0.3,0.7-0.6,0.8-0.7c2.7,2.5,5.4,5,8.1,7.6
			c-4.1,4.5-8.1,9-12.1,13.4c-7.2,8-14.5,16-21.7,24c-2.8,3.1-4.9,3.1-7.8,0c-1.5-1.6-2.9-3.2-4.4-4.9
			C22.6,83.1,22.6,82.2,22.6,81.4z"/>
		<path class="st2" d="M94.2,50.2c-2.3,2.5-4.6,5.1-7.1,7.5c-0.5,0.5-1.7,0.7-2.5,0.5c-2.5-0.5-4-3.6-3.3-6c0.2-0.6,0-1.3-0.2-1.9
			c-1.9-4.3-6.7-5.2-9.9-1.9C71,48.8,70.8,49,70,49.7c-1.2-1.4-2.4-2.8-3.6-4.2c-1.3-1.3-2.7-2.5-4-3.8c0.8-0.9,1.4-1.5,2-2.2
			c1.9-2.1,1.8-4.1-0.3-6.1c-4-3.7-8.8-5.5-14.1-6.2c-0.7-0.1-1.4-0.2-2.1-0.2c0-0.8,0-1.6,0-2.4c11.1-2.6,21.5-2.7,30,6.5
			c0.7,0.8,1.5,1.6,2.3,2.3c2.7,2.1,4.1,4.7,4.2,8.2c0.1,3,2.1,4.2,5.1,3.7c0.9-0.1,2,0.3,2.7,0.8c0.8,0.6,1.4,1.6,2.1,2.4
			C94.2,49,94.2,49.6,94.2,50.2z"/>
	</g>
	<g class="st1">
		<path d="M23.6,82.4c0.8-1,1.6-2.1,2.5-3c11.5-11.3,23.1-22.6,34.6-34c0.3-0.3,0.7-0.6,0.8-0.7c2.7,2.5,5.4,5,8.1,7.6
			c-4.1,4.5-8.1,9-12.1,13.4c-7.2,8-14.5,16-21.7,24c-2.8,3.1-4.9,3.1-7.8,0c-1.5-1.6-2.9-3.2-4.4-4.9
			C23.6,84.1,23.6,83.2,23.6,82.4z"/>
		<path d="M95.2,51.2c-2.3,2.5-4.6,5.1-7.1,7.5c-0.5,0.5-1.7,0.7-2.5,0.5c-2.5-0.5-4-3.6-3.3-6c0.2-0.6,0-1.3-0.2-1.9
			c-1.9-4.3-6.7-5.2-9.9-1.9C72,49.8,71.8,50,71,50.7c-1.2-1.4-2.4-2.8-3.6-4.2c-1.3-1.3-2.7-2.5-4-3.8c0.8-0.9,1.4-1.5,2-2.2
			c1.9-2.1,1.8-4.1-0.3-6.1c-4-3.7-8.8-5.5-14.1-6.2c-0.7-0.1-1.4-0.2-2.1-0.2c0-0.8,0-1.6,0-2.4c11.1-2.6,21.5-2.7,30,6.5
			c0.7,0.8,1.5,1.6,2.3,2.3c2.7,2.1,4.1,4.7,4.2,8.2c0.1,3,2.1,4.2,5.1,3.7c0.9-0.1,2,0.3,2.7,0.8c0.8,0.6,1.4,1.6,2.1,2.4
			C95.2,50,95.2,50.6,95.2,51.2z"/>
	</g>
</g>
<g id="repeat" class="st0">
	<g class="st1">
		<path class="st4" d="M30.1,57.5c0.3,21.3,19.5,36.6,39.7,32.7c18.5-3.5,30.3-21.7,26.1-40.3c-3.3-14.8-20.6-28.4-32.3-25.3
			c0,3.9,0,7.9,0,11.8c16,1.1,22.3,14.8,20.5,24.7C82.1,72.5,72,79.7,60.3,78.2C50.5,77,42.1,67.1,42.8,57.5c3.5,0,6.9,0,10.9,0
			c-5.9-7.2-11.6-14-17.3-20.9c-5.8,7-11.4,13.8-17.2,20.9C23.1,57.5,26.5,57.5,30.1,57.5z"/>
		<path class="st4" d="M30.1,57.5c-3.6,0-7,0-11,0c5.9-7.1,11.4-13.9,17.2-20.9c5.7,6.9,11.4,13.7,17.3,20.9c-3.9,0-7.4,0-10.9,0
			c-0.7,9.6,7.7,19.5,17.5,20.7c11.6,1.5,21.8-5.8,23.9-17.1c1.8-9.9-4.5-23.6-20.5-24.7c0-3.9,0-7.8,0-11.8
			c11.6-3,29,10.5,32.3,25.3c4.2,18.6-7.6,36.8-26.1,40.3C49.6,94.1,30.4,78.9,30.1,57.5z"/>
	</g>
	<g class="st1">
		<path class="st3" d="M31.1,58.5c0.3,21.3,19.5,36.6,39.7,32.7c18.5-3.5,30.3-21.7,26.1-40.3c-3.3-14.8-20.6-28.4-32.3-25.3
			c0,3.9,0,7.9,0,11.8c16,1.1,22.3,14.8,20.5,24.7C83.1,73.5,73,80.7,61.3,79.2C51.5,78,43.1,68.1,43.8,58.5c3.5,0,6.9,0,10.9,0
			c-5.9-7.2-11.6-14-17.3-20.9c-5.8,7-11.4,13.8-17.2,20.9C24.1,58.5,27.5,58.5,31.1,58.5z"/>
		<path d="M31.1,58.5c-3.6,0-7,0-11,0c5.9-7.1,11.4-13.9,17.2-20.9c5.7,6.9,11.4,13.7,17.3,20.9c-3.9,0-7.4,0-10.9,0
			c-0.7,9.6,7.7,19.5,17.5,20.7c11.6,1.5,21.8-5.8,23.9-17.1c1.8-9.9-4.5-23.6-20.5-24.7c0-3.9,0-7.8,0-11.8
			c11.6-3,29,10.5,32.3,25.3c4.2,18.6-7.6,36.8-26.1,40.3C50.6,95.1,31.4,79.9,31.1,58.5z"/>
	</g>
</g>
<g id="think2" class="st0">
	<circle class="st5" cx="59.2" cy="59.2" r="59.2"/>
	<g class="st1">
		<path class="st6" d="M55.1,77.4c-0.2-1.3-0.3-2.5-0.6-3.7c-0.7-3.1-2.2-5.8-3.8-8.5c-1.4-2.4-3-4.8-3.8-7.6
			c-1.2-4.5-0.8-8.7,2.5-12.2c2.6-2.8,6.1-4,9.9-3.9c3.8,0,7.3,1.2,9.9,4.1c3.1,3.5,3.6,7.6,2.4,12c-0.7,2.7-2.2,5-3.6,7.3
			c-1.5,2.6-3.1,5.2-3.8,8.1c-0.4,1.5-0.7,2.9-0.6,4.4c1.4,0,2.7,0,4,0c0.1-3.1,1.3-5.8,2.8-8.4c0.9-1.5,1.8-3.1,2.7-4.6
			c2-3.5,3.3-7.2,3.2-11.3c-0.2-5.9-2.6-10.5-7.8-13.4c-4-2.3-8.4-2.9-13-2c-4.3,0.8-7.9,2.8-10.4,6.4c-2.9,4.2-3.4,8.8-2.4,13.7
			c0.7,3.2,2.4,6.1,4,8.9c2,3.3,4.1,6.6,4.2,10.7C52.3,77.4,53.6,77.4,55.1,77.4z M59.2,87.5c1.8,0,3.7,0,5.5,0c1,0,1.6-0.6,1.6-1.5
			c0-0.9-0.6-1.5-1.6-1.5c-3.7,0-7.3,0-11,0c-1,0-1.7,0.7-1.7,1.5c0,0.9,0.7,1.5,1.7,1.5C55.6,87.5,57.4,87.5,59.2,87.5z M59.3,79.5
			c-1.9,0-3.8,0-5.7,0c-1,0-1.6,0.5-1.6,1.5c0,1,0.6,1.5,1.7,1.5c3.8,0,7.6,0,11.4,0c1.1,0,1.7-0.6,1.7-1.5c0-0.9-0.6-1.5-1.7-1.5
			C63,79.5,61.1,79.5,59.3,79.5z M29.6,55c2.8,0,5.6,0,8.3,0c0-1.4,0-2.7,0-4c-2.8,0-5.5,0-8.3,0C29.6,52.4,29.6,53.7,29.6,55z
			 M80.6,55c2.8,0,5.5,0,8.3,0c0-1.4,0-2.7,0-4c-2.8,0-5.5,0-8.3,0C80.6,52.4,80.6,53.7,80.6,55z M39.3,62.1
			c-2.5,1.1-4.9,2.2-7.4,3.3c0.6,1.3,1.1,2.5,1.7,3.8c2.5-1.1,4.9-2.2,7.4-3.3C40.4,64.6,39.9,63.4,39.3,62.1z M41.7,41.1
			c-2.2-1.6-4.4-3.1-6.6-4.7c-0.8,1.1-1.6,2.2-2.4,3.4c2.2,1.6,4.3,3.1,6.6,4.7C40.1,43.3,40.9,42.2,41.7,41.1z M83.4,36.4
			c-2.2,1.6-4.4,3.1-6.6,4.7c0.8,1.2,1.6,2.2,2.4,3.4c2.2-1.6,4.4-3.1,6.6-4.7C85,38.6,84.2,37.5,83.4,36.4z M86.5,65.4
			c-2.5-1-4.9-2-7.4-3c-0.5,1.3-1,2.5-1.5,3.8c2.5,1,4.9,2,7.4,3C85.5,67.9,86,66.7,86.5,65.4z M50.4,34.4c-1.2-2.3-2.4-4.5-3.6-6.7
			c-1.3,0.7-2.4,1.3-3.6,2c1.2,2.3,2.4,4.5,3.6,6.7C48,35.7,49.1,35.1,50.4,34.4z M71.8,27.7c-1.2,2.3-2.4,4.5-3.6,6.7
			c1.2,0.7,2.4,1.3,3.6,2c1.2-2.3,2.4-4.5,3.6-6.7C74.2,29,73,28.4,71.8,27.7z M61.4,25.8c-1.2,0-2.5,0-3.7,0
			c-0.2,0-0.4,0.4-0.4,0.6c0,0.9,0,1.7,0,2.6c0,1.4,0,2.7,0,4.1c1.4,0,2.8,0,4.1,0C61.4,30.6,61.4,28.3,61.4,25.8z M53.8,89.4
			c4,5.1,7.8,3.9,10.9,0C61,89.4,57.5,89.4,53.8,89.4z"/>
		<path class="st6" d="M55.1,77.4c-1.5,0-2.8,0-4.1,0c-0.1-4.1-2.2-7.4-4.2-10.7c-1.7-2.8-3.3-5.6-4-8.9c-1.1-4.9-0.6-9.5,2.4-13.7
			c2.5-3.6,6.1-5.6,10.4-6.4c4.6-0.9,8.9-0.3,13,2c5.2,3,7.6,7.5,7.8,13.4c0.1,4.1-1.2,7.8-3.2,11.3c-0.9,1.6-1.8,3.1-2.7,4.6
			c-1.5,2.6-2.7,5.3-2.8,8.4c-1.3,0-2.6,0-4,0c-0.1-1.5,0.2-3,0.6-4.4c0.8-2.9,2.3-5.5,3.8-8.1c1.4-2.3,2.9-4.7,3.6-7.3
			c1.2-4.4,0.8-8.5-2.4-12c-2.6-2.9-6-4.1-9.9-4.1c-3.8,0-7.2,1.1-9.9,3.9c-3.3,3.5-3.8,7.7-2.5,12.2c0.8,2.8,2.3,5.1,3.8,7.6
			c1.6,2.7,3.2,5.4,3.8,8.5C54.8,74.9,54.9,76.1,55.1,77.4z"/>
		<path class="st6" d="M59.2,87.5c-1.8,0-3.6,0-5.4,0c-1,0-1.7-0.6-1.7-1.5c0-0.9,0.7-1.5,1.7-1.5c3.7,0,7.3,0,11,0
			c1,0,1.6,0.6,1.6,1.5c0,0.9-0.6,1.5-1.6,1.5C62.9,87.5,61.1,87.5,59.2,87.5z"/>
		<path class="st6" d="M59.3,79.5c1.9,0,3.8,0,5.7,0c1.1,0,1.7,0.5,1.7,1.5c0,0.9-0.6,1.5-1.7,1.5c-3.8,0-7.6,0-11.4,0
			c-1.1,0-1.7-0.6-1.7-1.5c0-0.9,0.6-1.5,1.6-1.5C55.4,79.5,57.3,79.5,59.3,79.5z"/>
		<path class="st6" d="M29.6,55c0-1.3,0-2.6,0-4c2.8,0,5.5,0,8.3,0c0,1.3,0,2.6,0,4C35.2,55,32.4,55,29.6,55z"/>
		<path class="st6" d="M80.6,55c0-1.4,0-2.6,0-4c2.8,0,5.5,0,8.3,0c0,1.3,0,2.6,0,4C86.1,55,83.4,55,80.6,55z"/>
		<path class="st6" d="M39.3,62.1c0.6,1.3,1.1,2.5,1.7,3.8c-2.5,1.1-4.9,2.2-7.4,3.3c-0.6-1.2-1.1-2.5-1.7-3.8
			C34.4,64.3,36.8,63.2,39.3,62.1z"/>
		<path class="st6" d="M41.7,41.1c-0.8,1.1-1.6,2.2-2.4,3.4c-2.2-1.6-4.4-3.1-6.6-4.7c0.8-1.1,1.6-2.2,2.4-3.4
			C37.3,38,39.5,39.5,41.7,41.1z"/>
		<path class="st6" d="M83.4,36.4c0.8,1.1,1.6,2.2,2.4,3.4c-2.2,1.6-4.4,3.1-6.6,4.7c-0.8-1.1-1.6-2.2-2.4-3.4
			C79,39.5,81.2,38,83.4,36.4z"/>
		<path class="st6" d="M86.5,65.4c-0.5,1.3-1,2.5-1.6,3.8c-2.5-1-4.9-2-7.4-3c0.5-1.3,1-2.5,1.5-3.8C81.6,63.4,84,64.3,86.5,65.4z"
			/>
		<path class="st6" d="M50.4,34.4c-1.2,0.7-2.4,1.3-3.6,2c-1.2-2.2-2.4-4.5-3.6-6.7c1.2-0.7,2.4-1.3,3.6-2
			C48,30,49.2,32.2,50.4,34.4z"/>
		<path class="st6" d="M71.8,27.7c1.3,0.7,2.4,1.3,3.6,2c-1.2,2.3-2.4,4.5-3.6,6.7c-1.2-0.7-2.4-1.3-3.6-2
			C69.4,32.2,70.5,30,71.8,27.7z"/>
		<path class="st6" d="M61.4,25.8c0,2.5,0,4.9,0,7.3c-1.3,0-2.7,0-4.1,0c0-1.4,0-2.8,0-4.1c0-0.9,0-1.7,0-2.6c0-0.2,0.3-0.6,0.4-0.6
			C58.9,25.7,60.1,25.8,61.4,25.8z"/>
		<path class="st6" d="M53.8,89.4c3.7,0,7.2,0,10.9,0C61.6,93.3,57.8,94.4,53.8,89.4z"/>
	</g>
</g>
<g id="make2" class="st0">
	<circle class="st5" cx="59.2" cy="59.2" r="59.2"/>
	<g class="st1">
		<path class="st6" d="M23.4,83.6c0.8-1,1.6-2.1,2.5-3C37.4,69.3,49,58,60.5,46.6c0.3-0.3,0.7-0.6,0.8-0.7c2.7,2.5,5.4,5,8.1,7.6
			c-4.1,4.5-8.1,9-12.1,13.4c-7.2,8-14.5,16-21.7,24c-2.8,3.1-4.9,3.1-7.8,0c-1.5-1.6-2.9-3.2-4.4-4.9
			C23.4,85.3,23.4,84.4,23.4,83.6z"/>
		<path class="st6" d="M95.1,52.4c-2.3,2.5-4.6,5.1-7.1,7.5c-0.5,0.5-1.7,0.7-2.5,0.5c-2.5-0.5-4-3.6-3.3-6c0.2-0.6,0-1.3-0.2-1.9
			c-1.9-4.3-6.7-5.2-9.9-1.9c-0.2,0.3-0.5,0.5-1.2,1.2c-1.2-1.4-2.4-2.8-3.6-4.2c-1.3-1.3-2.7-2.5-4-3.8c0.8-0.9,1.4-1.5,2-2.2
			c1.9-2.1,1.8-4.1-0.3-6.1c-4-3.7-8.8-5.5-14.1-6.2c-0.7-0.1-1.4-0.2-2.1-0.2c0-0.8,0-1.6,0-2.4c11.1-2.6,21.5-2.7,30,6.5
			c0.7,0.8,1.5,1.6,2.3,2.3c2.7,2.1,4.1,4.7,4.2,8.2c0.1,3,2.1,4.2,5.1,3.7c0.9-0.1,2,0.3,2.7,0.8c0.8,0.6,1.4,1.6,2.1,2.4
			C95.1,51.2,95.1,51.8,95.1,52.4z"/>
	</g>
</g>
<g id="repeat2">
	<circle class="st4" cx="59.2" cy="59.2" r="59.2"/>
	<g>
		<path class="st6" d="M29.4,59.3C29.7,80.6,48.9,95.8,69.1,92c18.5-3.5,30.3-21.7,26.1-40.3C91.9,36.9,74.6,23.3,63,26.3
			c0,3.9,0,7.9,0,11.8c16,1.1,22.3,14.8,20.5,24.7C81.4,74.2,71.2,81.5,59.6,80c-9.8-1.2-18.2-11.1-17.5-20.7c3.5,0,6.9,0,10.9,0
			c-5.9-7.2-11.6-14-17.3-20.9c-5.8,7-11.4,13.8-17.2,20.9C22.4,59.3,25.8,59.3,29.4,59.3z"/>
		<path class="st6" d="M29.4,59.3c-3.6,0-7,0-11,0c5.9-7.1,11.4-13.9,17.2-20.9c5.7,6.9,11.4,13.7,17.3,20.9c-3.9,0-7.4,0-10.9,0
			c-0.7,9.6,7.7,19.5,17.5,20.7c11.6,1.5,21.8-5.8,23.9-17.1C85.3,52.9,79,39.2,63,38.1c0-3.9,0-7.8,0-11.8
			c11.6-3,29,10.5,32.3,25.3c4.2,18.6-7.6,36.8-26.1,40.3C48.9,95.8,29.7,80.6,29.4,59.3z"/>
	</g>
</g>
</svg>
