<?xml version="1.0" encoding="utf-8"?>
<!-- Generator: Adobe Illustrator 21.0.0, SVG Export Plug-In . SVG Version: 6.00 Build 0)  -->
<svg version="1.1" xmlns="http://www.w3.org/2000/svg" xmlns:xlink="http://www.w3.org/1999/xlink" x="0px" y="0px"
	 viewBox="0 0 263.5 45.3" style="enable-background:new 0 0 263.5 45.3;" xml:space="preserve">
<style type="text/css">
	.st0{display:none;}
	.st1{display:inline;fill:#F06924;}
	.st2{display:inline;fill:#383838;}
	.st3{display:inline;fill:#383838;stroke:#F06925;stroke-width:0.5;stroke-miterlimit:10;}
	.st4{fill:#383838;stroke:#F06925;stroke-width:0.5;stroke-miterlimit:10;}
</style>
<g id="Layer_1" class="st0">
	<path class="st1" d="M253.9,49.7H8.6v-23h-3v26h251.3v-26h-3V49.7z"/>
	<path class="st1" d="M248.3,9.1h14.2v-4h-14.2V9.1z M9.1,14.2V9.1h5.1v-4H9.1V0h-4v5.1H0v4h5.1v5.1H9.1z"/>
	<path class="st2" d="M254.9,50.7H9.6v-23h-3v26h251.3v-26h-3V50.7z"/>
	<path class="st2" d="M249.3,10.1h14.2v-4h-14.2V10.1z M10.1,15.2v-5.1h5.1v-4h-5.1V1h-4v5.1H1v4h5.1v5.1H10.1z"/>
</g>
<g id="Layer_2" class="st0">
	<path class="st3" d="M254.9,42.7H9.6v-23h-3v26h251.3v-26h-3V42.7z"/>
	<path class="st3" d="M249.3,10.1h14.2v-4h-14.2V10.1z M10.1,15.2v-5.1h5.1v-4h-5.1V1h-4v5.1H1v4h5.1v5.1H10.1z"/>
</g>
<g id="Layer_3" class="st0">
	<rect x="5.9" y="21.2" class="st3" width="3.1" height="19.6"/>
	
		<rect x="130.1" y="-86.6" transform="matrix(4.394334e-10 -1 1 4.394334e-10 92.4529 170.9477)" class="st3" width="3.1" height="251.6"/>
	<path class="st3" d="M248.8,12h14.2V8h-14.2V12z M9.5,17.1V12h5.1V8H9.5V2.9h-4V8H0.5v4h5.1v5.1H9.5z"/>
	<rect x="254.4" y="21.2" class="st3" width="3.1" height="19.6"/>
</g>
<g id="Layer_4">
	<path class="st4" d="M249.3,10.7h14.2v-4h-14.2V10.7z M10,15.8v-5.1h5.1v-4H10V1.6h-4v5.1H1v4h5.1v5.1H10z"/>
	<polygon class="st4" points="254.9,24.9 254.9,41.4 9.5,41.4 9.5,24.9 6.4,24.9 6.4,41.4 6.4,44.5 9.5,44.5 254.9,44.5 258,44.5 
		258,41.4 258,24.9 	"/>
</g>
</svg>
