<?xml version="1.0" encoding="utf-8"?>
<!-- Generator: Adobe Illustrator 21.0.0, SVG Export Plug-In . SVG Version: 6.00 Build 0)  -->
<svg version="1.1" id="Layer_1" xmlns="http://www.w3.org/2000/svg" xmlns:xlink="http://www.w3.org/1999/xlink" x="0px" y="0px"
	 viewBox="0 0 263.5 53.7" style="enable-background:new 0 0 263.5 53.7;" xml:space="preserve">
<style type="text/css">
	.st0{fill:#070808;stroke:#F06925;stroke-miterlimit:10;}
	.st1{fill:#070808;}
</style>
<rect x="6.7" y="10.2" transform="matrix(4.485663e-11 -1 1 4.485663e-11 -8.0949 24.2923)" class="st0" width="2.7" height="12.1"/>
<path class="st0" d="M254.9,50.7H9.6v-23h-3v26h251.3v-26h-3V50.7z"/>
<path class="st1" d="M247.4-12.5h14.2v-4h-14.2V-12.5z"/>
<rect x="6.7" y="10.2" class="st0" width="2.7" height="12.1"/>
<rect x="7.2" y="10.7" transform="matrix(6.509111e-11 -1 1 6.509111e-11 -8.0936 24.289)" class="st1" width="1.7" height="11.1"/>
<g>
	
		<rect x="255" y="10.1" transform="matrix(4.485663e-11 -1 1 4.485663e-11 240.1354 272.5013)" class="st0" width="2.7" height="12.1"/>
	
		<rect x="255.5" y="10.6" transform="matrix(6.456175e-11 -1 1 6.456175e-11 240.1367 272.498)" class="st1" width="1.7" height="11.1"/>
</g>
</svg>
