<?xml version="1.0" encoding="utf-8"?>
<!-- Generator: Adobe Illustrator 21.0.0, SVG Export Plug-In . SVG Version: 6.00 Build 0)  -->
<svg version="1.1" id="Layer_1" xmlns="http://www.w3.org/2000/svg" xmlns:xlink="http://www.w3.org/1999/xlink" x="0px" y="0px"
	 viewBox="0 0 263.5 45.7" style="enable-background:new 0 0 263.5 45.7;" xml:space="preserve">
<style type="text/css">
	.st0{fill:#F06924;}
	.st1{fill:#070808;}
</style>
<rect x="4.6" y="24.7" class="st0" width="2.9" height="19"/>
<rect x="128.8" y="-83.4" transform="matrix(6.123234e-17 -1 1 6.123234e-17 87.9987 172.4984)" class="st0" width="2.9" height="251.3"/>
<rect x="253" y="24.7" class="st0" width="2.9" height="19"/>
<path class="st0" d="M248.3,9.1h14.2v-4h-14.2V9.1z M9.1,14.2V9.1h5.1v-4H9.1V0h-4v5.1H0v4h5.1v5.1H9.1z"/>
<path class="st1" d="M249.3,10.1h14.2v-4h-14.2V10.1z M10.1,15.2v-5.1h5.1v-4h-5.1V1h-4v5.1H1v4h5.1v5.1H10.1z"/>
<rect x="6.6" y="26.7" class="st1" width="2.9" height="19"/>
<rect x="130.8" y="-81.4" transform="matrix(6.123234e-17 -1 1 6.123234e-17 87.9987 176.4984)" class="st1" width="2.9" height="251.3"/>
<rect x="255" y="26.7" class="st1" width="2.9" height="19"/>
</svg>
