<?xml version="1.0" encoding="utf-8"?>
<!-- Generator: Adobe Illustrator 21.0.0, SVG Export Plug-In . SVG Version: 6.00 Build 0)  -->
<svg version="1.1" xmlns="http://www.w3.org/2000/svg" xmlns:xlink="http://www.w3.org/1999/xlink" x="0px" y="0px"
	 viewBox="0 0 84 71" style="enable-background:new 0 0 84 71;" xml:space="preserve">
<style type="text/css">
	.st0{fill:#F06924;}
	.st1{fill:#FFFFFF;}
	.st2{display:none;}
	.st3{display:inline;}
	.st4{fill:#F06925;}
</style>
<g id="think">
	<g>
		<path class="st0" d="M37.5,51.9c-0.2-1.3-0.3-2.5-0.6-3.7c-0.7-3.1-2.2-5.8-3.8-8.5c-1.4-2.4-3-4.8-3.8-7.6
			c-1.2-4.5-0.8-8.7,2.5-12.2c2.6-2.8,6.1-4,9.9-3.9c3.8,0,7.3,1.2,9.9,4.1c3.1,3.5,3.6,7.6,2.4,12c-0.7,2.7-2.2,5-3.6,7.3
			c-1.5,2.6-3.1,5.2-3.8,8.1c-0.4,1.5-0.7,2.9-0.6,4.4c1.4,0,2.7,0,4,0c0.1-3.1,1.3-5.8,2.8-8.4c0.9-1.5,1.8-3.1,2.7-4.6
			c2-3.5,3.3-7.2,3.2-11.3c-0.2-5.9-2.6-10.5-7.8-13.4c-4-2.3-8.4-2.9-13-2c-4.3,0.8-7.9,2.8-10.4,6.4c-2.9,4.2-3.4,8.8-2.4,13.7
			c0.7,3.2,2.4,6.1,4,8.9c2,3.3,4.1,6.6,4.2,10.7C34.8,51.9,36,51.9,37.5,51.9z M41.7,62c1.8,0,3.7,0,5.5,0c1,0,1.6-0.6,1.6-1.5
			c0-0.9-0.6-1.5-1.6-1.5c-3.7,0-7.3,0-11,0c-1,0-1.7,0.7-1.7,1.5c0,0.9,0.7,1.5,1.7,1.5C38.1,62,39.9,62,41.7,62z M41.7,54
			c-1.9,0-3.8,0-5.7,0c-1,0-1.6,0.5-1.6,1.5c0,1,0.6,1.5,1.7,1.5c3.8,0,7.6,0,11.4,0c1.1,0,1.7-0.6,1.7-1.5c0-0.9-0.6-1.5-1.7-1.5
			C45.5,54,43.6,54,41.7,54z M12,29.6c2.8,0,5.6,0,8.3,0c0-1.4,0-2.7,0-4c-2.8,0-5.5,0-8.3,0C12,26.9,12,28.2,12,29.6z M63.1,29.6
			c2.8,0,5.5,0,8.3,0c0-1.4,0-2.7,0-4c-2.8,0-5.5,0-8.3,0C63.1,26.9,63.1,28.2,63.1,29.6z M21.8,36.6c-2.5,1.1-4.9,2.2-7.4,3.3
			c0.6,1.3,1.1,2.5,1.7,3.8c2.5-1.1,4.9-2.2,7.4-3.3C22.9,39.1,22.4,37.9,21.8,36.6z M24.2,15.6c-2.2-1.6-4.4-3.1-6.6-4.7
			c-0.8,1.1-1.6,2.2-2.4,3.4c2.2,1.6,4.3,3.1,6.6,4.7C22.6,17.8,23.3,16.8,24.2,15.6z M65.8,10.9c-2.2,1.6-4.4,3.1-6.6,4.7
			c0.8,1.2,1.6,2.2,2.4,3.4c2.2-1.6,4.4-3.1,6.6-4.7C67.4,13.1,66.7,12.1,65.8,10.9z M69,39.9c-2.5-1-4.9-2-7.4-3
			c-0.5,1.3-1,2.5-1.5,3.8c2.5,1,4.9,2,7.4,3C67.9,42.4,68.4,41.2,69,39.9z M32.8,9c-1.2-2.3-2.4-4.5-3.6-6.7
			c-1.3,0.7-2.4,1.3-3.6,2c1.2,2.3,2.4,4.5,3.6,6.7C30.4,10.3,31.6,9.6,32.8,9z M54.2,2.2C53,4.5,51.8,6.7,50.6,9
			c1.2,0.7,2.4,1.3,3.6,2c1.2-2.3,2.4-4.5,3.6-6.7C56.6,3.5,55.5,2.9,54.2,2.2z M43.8,0.3c-1.2,0-2.5,0-3.7,0
			c-0.2,0-0.4,0.4-0.4,0.6c0,0.9,0,1.7,0,2.6c0,1.4,0,2.7,0,4.1c1.4,0,2.8,0,4.1,0C43.8,5.2,43.8,2.8,43.8,0.3z M36.2,63.9
			c4,5.1,7.8,3.9,10.9,0C43.5,63.9,39.9,63.9,36.2,63.9z"/>
		<path class="st0" d="M37.5,51.9c-1.5,0-2.8,0-4.1,0c-0.1-4.1-2.2-7.4-4.2-10.7c-1.7-2.8-3.3-5.6-4-8.9c-1.1-4.9-0.6-9.5,2.4-13.7
			c2.5-3.6,6.1-5.6,10.4-6.4c4.6-0.9,8.9-0.3,13,2c5.2,3,7.6,7.5,7.8,13.4c0.1,4.1-1.2,7.8-3.2,11.3c-0.9,1.6-1.8,3.1-2.7,4.6
			c-1.5,2.6-2.7,5.3-2.8,8.4c-1.3,0-2.6,0-4,0c-0.1-1.5,0.2-3,0.6-4.4c0.8-2.9,2.3-5.5,3.8-8.1c1.4-2.3,2.9-4.7,3.6-7.3
			c1.2-4.4,0.8-8.5-2.4-12c-2.6-2.9-6-4.1-9.9-4.1c-3.8,0-7.2,1.1-9.9,3.9c-3.3,3.5-3.8,7.7-2.5,12.2c0.8,2.8,2.3,5.1,3.8,7.6
			c1.6,2.7,3.2,5.4,3.8,8.5C37.2,49.4,37.3,50.6,37.5,51.9z"/>
		<path class="st0" d="M41.7,62c-1.8,0-3.6,0-5.4,0c-1,0-1.7-0.6-1.7-1.5c0-0.9,0.7-1.5,1.7-1.5c3.7,0,7.3,0,11,0
			c1,0,1.6,0.6,1.6,1.5c0,0.9-0.6,1.5-1.6,1.5C45.3,62,43.5,62,41.7,62z"/>
		<path class="st0" d="M41.7,54c1.9,0,3.8,0,5.7,0c1.1,0,1.7,0.5,1.7,1.5c0,0.9-0.6,1.5-1.7,1.5c-3.8,0-7.6,0-11.4,0
			c-1.1,0-1.7-0.6-1.7-1.5c0-0.9,0.6-1.5,1.6-1.5C37.9,54,39.8,54,41.7,54z"/>
		<path class="st0" d="M12,29.6c0-1.3,0-2.6,0-4c2.8,0,5.5,0,8.3,0c0,1.3,0,2.6,0,4C17.6,29.6,14.9,29.6,12,29.6z"/>
		<path class="st0" d="M63.1,29.6c0-1.4,0-2.6,0-4c2.8,0,5.5,0,8.3,0c0,1.3,0,2.6,0,4C68.6,29.6,65.9,29.6,63.1,29.6z"/>
		<path class="st0" d="M21.8,36.6c0.6,1.3,1.1,2.5,1.7,3.8c-2.5,1.1-4.9,2.2-7.4,3.3c-0.6-1.2-1.1-2.5-1.7-3.8
			C16.8,38.8,19.2,37.7,21.8,36.6z"/>
		<path class="st0" d="M24.2,15.6c-0.8,1.1-1.6,2.2-2.4,3.4c-2.2-1.6-4.4-3.1-6.6-4.7c0.8-1.1,1.6-2.2,2.4-3.4
			C19.8,12.5,21.9,14,24.2,15.6z"/>
		<path class="st0" d="M65.8,10.9c0.8,1.1,1.6,2.2,2.4,3.4c-2.2,1.6-4.4,3.1-6.6,4.7c-0.8-1.1-1.6-2.2-2.4-3.4
			C61.5,14.1,63.6,12.5,65.8,10.9z"/>
		<path class="st0" d="M69,39.9c-0.5,1.3-1,2.5-1.6,3.8c-2.5-1-4.9-2-7.4-3c0.5-1.3,1-2.5,1.5-3.8C64,37.9,66.5,38.9,69,39.9z"/>
		<path class="st0" d="M32.8,9c-1.2,0.7-2.4,1.3-3.6,2c-1.2-2.2-2.4-4.5-3.6-6.7c1.2-0.7,2.4-1.3,3.6-2C30.4,4.5,31.6,6.7,32.8,9z"
			/>
		<path class="st0" d="M54.2,2.2c1.3,0.7,2.4,1.3,3.6,2c-1.2,2.3-2.4,4.5-3.6,6.7c-1.2-0.7-2.4-1.3-3.6-2C51.8,6.7,53,4.5,54.2,2.2z
			"/>
		<path class="st0" d="M43.8,0.3c0,2.5,0,4.9,0,7.3c-1.3,0-2.7,0-4.1,0c0-1.4,0-2.8,0-4.1c0-0.9,0-1.7,0-2.6c0-0.2,0.3-0.6,0.4-0.6
			C41.4,0.3,42.6,0.3,43.8,0.3z"/>
		<path class="st0" d="M36.2,63.9c3.7,0,7.2,0,10.9,0C44,67.8,40.3,69,36.2,63.9z"/>
	</g>
	<g>
		<path class="st1" d="M37.5,53.9c-0.2-1.3-0.3-2.5-0.6-3.7c-0.7-3.1-2.2-5.8-3.8-8.5c-1.4-2.4-3-4.8-3.8-7.6
			c-1.2-4.5-0.8-8.7,2.5-12.2c2.6-2.8,6.1-4,9.9-3.9c3.8,0,7.3,1.2,9.9,4.1c3.1,3.5,3.6,7.6,2.4,12c-0.7,2.7-2.2,5-3.6,7.3
			c-1.5,2.6-3.1,5.2-3.8,8.1c-0.4,1.5-0.7,2.9-0.6,4.4c1.4,0,2.7,0,4,0c0.1-3.1,1.3-5.8,2.8-8.4c0.9-1.5,1.8-3.1,2.7-4.6
			c2-3.5,3.3-7.2,3.2-11.3c-0.2-5.9-2.6-10.5-7.8-13.4c-4-2.3-8.4-2.9-13-2c-4.3,0.8-7.9,2.8-10.4,6.4c-2.9,4.2-3.4,8.8-2.4,13.7
			c0.7,3.2,2.4,6.1,4,8.9c2,3.3,4.1,6.6,4.2,10.7C34.8,53.9,36,53.9,37.5,53.9z M41.7,64c1.8,0,3.7,0,5.5,0c1,0,1.6-0.6,1.6-1.5
			c0-0.9-0.6-1.5-1.6-1.5c-3.7,0-7.3,0-11,0c-1,0-1.7,0.7-1.7,1.5c0,0.9,0.7,1.5,1.7,1.5C38.1,64,39.9,64,41.7,64z M41.7,56
			c-1.9,0-3.8,0-5.7,0c-1,0-1.6,0.5-1.6,1.5c0,1,0.6,1.5,1.7,1.5c3.8,0,7.6,0,11.4,0c1.1,0,1.7-0.6,1.7-1.5c0-0.9-0.6-1.5-1.7-1.5
			C45.5,56,43.6,56,41.7,56z M12,31.6c2.8,0,5.6,0,8.3,0c0-1.4,0-2.7,0-4c-2.8,0-5.5,0-8.3,0C12,28.9,12,30.2,12,31.6z M63.1,31.6
			c2.8,0,5.5,0,8.3,0c0-1.4,0-2.7,0-4c-2.8,0-5.5,0-8.3,0C63.1,28.9,63.1,30.2,63.1,31.6z M21.8,38.6c-2.5,1.1-4.9,2.2-7.4,3.3
			c0.6,1.3,1.1,2.5,1.7,3.8c2.5-1.1,4.9-2.2,7.4-3.3C22.9,41.1,22.4,39.9,21.8,38.6z M24.2,17.6c-2.2-1.6-4.4-3.1-6.6-4.7
			c-0.8,1.1-1.6,2.2-2.4,3.4c2.2,1.6,4.3,3.1,6.6,4.7C22.6,19.8,23.3,18.8,24.2,17.6z M65.8,12.9c-2.2,1.6-4.4,3.1-6.6,4.7
			c0.8,1.2,1.6,2.2,2.4,3.4c2.2-1.6,4.4-3.1,6.6-4.7C67.4,15.1,66.7,14.1,65.8,12.9z M69,41.9c-2.5-1-4.9-2-7.4-3
			c-0.5,1.3-1,2.5-1.5,3.8c2.5,1,4.9,2,7.4,3C67.9,44.4,68.4,43.2,69,41.9z M32.8,11c-1.2-2.3-2.4-4.5-3.6-6.7
			c-1.3,0.7-2.4,1.3-3.6,2c1.2,2.3,2.4,4.5,3.6,6.7C30.4,12.3,31.6,11.6,32.8,11z M54.2,4.2C53,6.5,51.8,8.7,50.6,11
			c1.2,0.7,2.4,1.3,3.6,2c1.2-2.3,2.4-4.5,3.6-6.7C56.6,5.5,55.5,4.9,54.2,4.2z M43.8,2.3c-1.2,0-2.5,0-3.7,0
			c-0.2,0-0.4,0.4-0.4,0.6c0,0.9,0,1.7,0,2.6c0,1.4,0,2.7,0,4.1c1.4,0,2.8,0,4.1,0C43.8,7.2,43.8,4.8,43.8,2.3z M36.2,65.9
			c4,5.1,7.8,3.9,10.9,0C43.5,65.9,39.9,65.9,36.2,65.9z"/>
		<path d="M37.5,53.9c-1.5,0-2.8,0-4.1,0c-0.1-4.1-2.2-7.4-4.2-10.7c-1.7-2.8-3.3-5.6-4-8.9c-1.1-4.9-0.6-9.5,2.4-13.7
			c2.5-3.6,6.1-5.6,10.4-6.4c4.6-0.9,8.9-0.3,13,2c5.2,3,7.6,7.5,7.8,13.4c0.1,4.1-1.2,7.8-3.2,11.3c-0.9,1.6-1.8,3.1-2.7,4.6
			c-1.5,2.6-2.7,5.3-2.8,8.4c-1.3,0-2.6,0-4,0c-0.1-1.5,0.2-3,0.6-4.4c0.8-2.9,2.3-5.5,3.8-8.1c1.4-2.3,2.9-4.7,3.6-7.3
			c1.2-4.4,0.8-8.5-2.4-12c-2.6-2.9-6-4.1-9.9-4.1c-3.8,0-7.2,1.1-9.9,3.9c-3.3,3.5-3.8,7.7-2.5,12.2c0.8,2.8,2.3,5.1,3.8,7.6
			c1.6,2.7,3.2,5.4,3.8,8.5C37.2,51.4,37.3,52.6,37.5,53.9z"/>
		<path d="M41.7,64c-1.8,0-3.6,0-5.4,0c-1,0-1.7-0.6-1.7-1.5c0-0.9,0.7-1.5,1.7-1.5c3.7,0,7.3,0,11,0c1,0,1.6,0.6,1.6,1.5
			c0,0.9-0.6,1.5-1.6,1.5C45.3,64,43.5,64,41.7,64z"/>
		<path d="M41.7,56c1.9,0,3.8,0,5.7,0c1.1,0,1.7,0.5,1.7,1.5c0,0.9-0.6,1.5-1.7,1.5c-3.8,0-7.6,0-11.4,0c-1.1,0-1.7-0.6-1.7-1.5
			c0-0.9,0.6-1.5,1.6-1.5C37.9,56,39.8,56,41.7,56z"/>
		<path d="M12,31.6c0-1.3,0-2.6,0-4c2.8,0,5.5,0,8.3,0c0,1.3,0,2.6,0,4C17.6,31.6,14.9,31.6,12,31.6z"/>
		<path d="M63.1,31.6c0-1.4,0-2.6,0-4c2.8,0,5.5,0,8.3,0c0,1.3,0,2.6,0,4C68.6,31.6,65.9,31.6,63.1,31.6z"/>
		<path d="M21.8,38.6c0.6,1.3,1.1,2.5,1.7,3.8c-2.5,1.1-4.9,2.2-7.4,3.3c-0.6-1.2-1.1-2.5-1.7-3.8C16.8,40.8,19.2,39.7,21.8,38.6z"
			/>
		<path d="M24.2,17.6c-0.8,1.1-1.6,2.2-2.4,3.4c-2.2-1.6-4.4-3.1-6.6-4.7c0.8-1.1,1.6-2.2,2.4-3.4C19.8,14.5,21.9,16,24.2,17.6z"/>
		<path d="M65.8,12.9c0.8,1.1,1.6,2.2,2.4,3.4c-2.2,1.6-4.4,3.1-6.6,4.7c-0.8-1.1-1.6-2.2-2.4-3.4C61.5,16.1,63.6,14.5,65.8,12.9z"
			/>
		<path d="M69,41.9c-0.5,1.3-1,2.5-1.6,3.8c-2.5-1-4.9-2-7.4-3c0.5-1.3,1-2.5,1.5-3.8C64,39.9,66.5,40.9,69,41.9z"/>
		<path d="M32.8,11c-1.2,0.7-2.4,1.3-3.6,2c-1.2-2.2-2.4-4.5-3.6-6.7c1.2-0.7,2.4-1.3,3.6-2C30.4,6.5,31.6,8.7,32.8,11z"/>
		<path d="M54.2,4.2c1.3,0.7,2.4,1.3,3.6,2c-1.2,2.3-2.4,4.5-3.6,6.7c-1.2-0.7-2.4-1.3-3.6-2C51.8,8.7,53,6.5,54.2,4.2z"/>
		<path d="M43.8,2.3c0,2.5,0,4.9,0,7.3c-1.3,0-2.7,0-4.1,0c0-1.4,0-2.8,0-4.1c0-0.9,0-1.7,0-2.6c0-0.2,0.3-0.6,0.4-0.6
			C41.4,2.3,42.6,2.3,43.8,2.3z"/>
		<path d="M36.2,65.9c3.7,0,7.2,0,10.9,0C44,69.8,40.3,71,36.2,65.9z"/>
	</g>
</g>
<g id="make" class="st2">
	<g class="st3">
		<path class="st0" d="M4.3,57.8c0.8-1,1.6-2.1,2.5-3c11.5-11.3,23.1-22.6,34.6-34c0.3-0.3,0.7-0.6,0.8-0.7c2.7,2.5,5.4,5,8.1,7.6
			c-4.1,4.5-8.1,9-12.1,13.4c-7.2,8-14.5,16-21.7,24c-2.8,3.1-4.9,3.1-7.8,0c-1.5-1.6-2.9-3.2-4.4-4.9C4.3,59.5,4.3,58.7,4.3,57.8z"
			/>
		<path class="st0" d="M76,26.7c-2.3,2.5-4.6,5.1-7.1,7.5c-0.5,0.5-1.7,0.7-2.5,0.5c-2.5-0.5-4-3.6-3.3-6c0.2-0.6,0-1.3-0.2-1.9
			c-1.9-4.3-6.7-5.2-9.9-1.9c-0.2,0.3-0.5,0.5-1.2,1.2c-1.2-1.4-2.4-2.8-3.6-4.2c-1.3-1.3-2.7-2.5-4-3.8c0.8-0.9,1.4-1.5,2-2.2
			c1.9-2.1,1.8-4.1-0.3-6.1c-4-3.7-8.8-5.5-14.1-6.2c-0.7-0.1-1.4-0.2-2.1-0.2c0-0.8,0-1.6,0-2.4c11.1-2.6,21.5-2.7,30,6.5
			c0.7,0.8,1.5,1.6,2.3,2.3c2.7,2.1,4.1,4.7,4.2,8.2c0.1,3,2.1,4.2,5.1,3.7c0.9-0.1,2,0.3,2.7,0.8c0.8,0.6,1.4,1.6,2.1,2.4
			C76,25.5,76,26.1,76,26.7z"/>
	</g>
	<g class="st3">
		<path d="M6.3,59.8c0.8-1,1.6-2.1,2.5-3c11.5-11.3,23.1-22.6,34.6-34c0.3-0.3,0.7-0.6,0.8-0.7c2.7,2.5,5.4,5,8.1,7.6
			c-4.1,4.5-8.1,9-12.1,13.4c-7.2,8-14.5,16-21.7,24c-2.8,3.1-4.9,3.1-7.8,0c-1.5-1.6-2.9-3.2-4.4-4.9C6.3,61.5,6.3,60.7,6.3,59.8z"
			/>
		<path d="M78,28.7c-2.3,2.5-4.6,5.1-7.1,7.5c-0.5,0.5-1.7,0.7-2.5,0.5c-2.5-0.5-4-3.6-3.3-6c0.2-0.6,0-1.3-0.2-1.9
			c-1.9-4.3-6.7-5.2-9.9-1.9c-0.2,0.3-0.5,0.5-1.2,1.2c-1.2-1.4-2.4-2.8-3.6-4.2c-1.3-1.3-2.7-2.5-4-3.8c0.8-0.9,1.4-1.5,2-2.2
			c1.9-2.1,1.8-4.1-0.3-6.1c-4-3.7-8.8-5.5-14.1-6.2c-0.7-0.1-1.4-0.2-2.1-0.2c0-0.8,0-1.6,0-2.4c11.1-2.6,21.5-2.7,30,6.5
			c0.7,0.8,1.5,1.6,2.3,2.3c2.7,2.1,4.1,4.7,4.2,8.2c0.1,3,2.1,4.2,5.1,3.7c0.9-0.1,2,0.3,2.7,0.8c0.8,0.6,1.4,1.6,2.1,2.4
			C78,27.5,78,28.1,78,28.7z"/>
	</g>
</g>
<g id="repeat" class="st2">
	<g class="st3">
		<path class="st4" d="M11.9,34c0.3,21.3,19.5,36.6,39.7,32.7c18.5-3.5,30.3-21.7,26.1-40.3C74.4,11.6,57.1-2,45.5,1
			c0,3.9,0,7.9,0,11.8c16,1.1,22.3,14.8,20.5,24.7c-2.1,11.4-12.2,18.6-23.9,17.1c-9.8-1.2-18.2-11.1-17.5-20.7c3.5,0,6.9,0,10.9,0
			C29.5,26.8,23.9,20,18.1,13C12.3,20.1,6.7,26.9,0.9,34C4.8,34,8.3,34,11.9,34z"/>
		<path class="st4" d="M11.9,34c-3.6,0-7,0-11,0C6.7,26.9,12.3,20.1,18.1,13c5.7,6.9,11.4,13.7,17.3,20.9c-3.9,0-7.4,0-10.9,0
			c-0.7,9.6,7.7,19.5,17.5,20.7c11.6,1.5,21.8-5.8,23.9-17.1c1.8-9.9-4.5-23.6-20.5-24.7c0-3.9,0-7.8,0-11.8
			c11.6-3,29,10.5,32.3,25.3c4.2,18.6-7.6,36.8-26.1,40.3C31.4,70.5,12.1,55.3,11.9,34z"/>
	</g>
	<g class="st3">
		<path class="st1" d="M13.9,36c0.3,21.3,19.5,36.6,39.7,32.7c18.5-3.5,30.3-21.7,26.1-40.3C76.4,13.6,59.1,0,47.5,3
			c0,3.9,0,7.9,0,11.8c16,1.1,22.3,14.8,20.5,24.7c-2.1,11.4-12.2,18.6-23.9,17.1c-9.8-1.2-18.2-11.1-17.5-20.7c3.5,0,6.9,0,10.9,0
			C31.5,28.8,25.9,22,20.1,15C14.3,22.1,8.7,28.9,2.9,36C6.8,36,10.3,36,13.9,36z"/>
		<path d="M13.9,36c-3.6,0-7,0-11,0C8.7,28.9,14.3,22.1,20.1,15c5.7,6.9,11.4,13.7,17.3,20.9c-3.9,0-7.4,0-10.9,0
			c-0.7,9.6,7.7,19.5,17.5,20.7c11.6,1.5,21.8-5.8,23.9-17.1c1.8-9.9-4.5-23.6-20.5-24.7c0-3.9,0-7.8,0-11.8
			c11.6-3,29,10.5,32.3,25.3c4.2,18.6-7.6,36.8-26.1,40.3C33.4,72.5,14.1,57.3,13.9,36z"/>
	</g>
</g>
</svg>
